<?xml version="1.0" encoding="utf-8"?>
<!-- Generator: Adobe Illustrator 24.2.3, SVG Export Plug-In . SVG Version: 6.00 Build 0)  -->
<svg version="1.1" id="customs-officer" xmlns="http://www.w3.org/2000/svg" xmlns:xlink="http://www.w3.org/1999/xlink" x="0px"
	 y="0px" viewBox="0 0 64 64" style="enable-background:new 0 0 64 64;" xml:space="preserve">
<style type="text/css">
	.st0{fill:#04f51a;stroke:#04f51a;}
</style>
<path class="st0" d="M32,12c1.7,0,3-1.3,3-3s-1.3-3-3-3s-3,1.3-3,3S30.3,12,32,12z M32,8c0.6,0,1,0.4,1,1s-0.4,1-1,1s-1-0.4-1-1
	S31.4,8,32,8z"/>
<rect x="19" y="45" class="st0" width="2" height="2"/>
<rect x="23" y="45" class="st0" width="3" height="2"/>
<path class="st0" d="M55,43h-2v-6.5c0-1.9-1.6-3.5-3.5-3.5c-1.5,0-2.9,1-3.4,2.5l-7.3-2.9c2.7-2.3,4.2-5.6,4.2-9.1v-8.4l1.8-4.5
	c0.1-0.2,0.2-0.6,0.2-1V6.7c0-1.5-1.1-2.7-2.5-3L32.5,2c-0.3-0.1-0.7-0.1-1,0l-10,1.7C20.1,4,19,5.2,19,6.7v2.9
	c0,0.4,0.1,0.8,0.2,1.1l1.8,4.5v8.4c0,3.5,1.5,6.8,4.2,9.1L15,36.6c-4.2,1.6-7,5.7-7,10.3V62h47c1.7,0,3-1.3,3-3V46
	C58,44.3,56.7,43,55,43z M49.5,35c0.8,0,1.5,0.7,1.5,1.5V43h-3v-6.5C48,35.7,48.7,35,49.5,35z M51,45v15h-3V45H51z M43.7,36.7
	l-4.6,4L36,37.5c-0.1-1-0.6-1.9-1.3-2.5l0.8-0.3c0.5-0.2,1-0.4,1.4-0.7L43.7,36.7z M32,36c1.1,0,2,0.9,2,2s-0.9,2-2,2
	c-1.1,0-2-0.9-2-2S30.9,36,32,36z M30,41.4c1.2,0.7,2.8,0.7,4,0v12.1l-2,2l-2-2V41.4z M21,6.7c0-0.5,0.4-0.9,0.8-1l10-1.7
	c0.1,0,0.2,0,0.3,0l10,1.7c0.5,0.1,0.8,0.5,0.8,1v2.9c0,0.1,0,0.3-0.1,0.4l-1.6,4H22.7l-1.6-4C21,9.9,21,9.7,21,9.6V6.7z M40.1,16
	c-3.4,4.5-9.8,5.3-14.2,1.9c-0.7-0.6-1.4-1.2-1.9-1.9H40.1z M23,23.6V18c4.5,5,12.2,5.3,17.2,0.8c0.3-0.3,0.6-0.5,0.8-0.8v5.5
	c0,4.1-2.5,7.8-6.3,9.3l-0.9,0.3c-1.2,0.5-2.5,0.5-3.7,0l-0.9-0.3C25.5,31.3,23,27.6,23,23.6z M28.5,34.7l0.8,0.3
	c-0.7,0.6-1.2,1.5-1.3,2.5l-3.1,3.1l-4.6-4l6.8-2.7C27.6,34.3,28.1,34.5,28.5,34.7z M10,46.8c0-3.7,2.3-7.1,5.7-8.4l2.5-1l6.8,5.9
	l2.9-2.9v14l4,4l4-4v-14l2.9,2.9l6.8-5.9l0.2,0.1V43h-2c-1.7,0-3,1.3-3,3v13c0,0.3,0.1,0.7,0.2,1H21V50h-2v10h-9V46.8z M43,59V46
	c0-0.6,0.4-1,1-1h2v15h-2C43.4,60,43,59.6,43,59z M56,59c0,0.6-0.4,1-1,1h-2V45h2c0.6,0,1,0.4,1,1V59z"/>
</svg>
