<?xml version="1.0" encoding="utf-8"?>
<!-- Generator: Adobe Illustrator 24.2.3, SVG Export Plug-In . SVG Version: 6.00 Build 0)  -->
<svg version="1.1" id="fuel-station" xmlns="http://www.w3.org/2000/svg" xmlns:xlink="http://www.w3.org/1999/xlink" x="0px"
	 y="0px" viewBox="0 0 32 32" style="enable-background:new 0 0 32 32;" xml:space="preserve">
<style type="text/css">
	.st0{fill:#04f51a;}
</style>
<path class="st0" d="M6.5,21h4c0.3,0,0.5-0.2,0.5-0.5v-4c0-0.3-0.2-0.5-0.5-0.5h-4C6.2,16,6,16.2,6,16.5v4C6,20.8,6.2,21,6.5,21z
	 M7,17h3v3H7V17z M21.5,21h4c0.3,0,0.5-0.2,0.5-0.5v-4c0-0.3-0.2-0.5-0.5-0.5h-4c-0.3,0-0.5,0.2-0.5,0.5v4C21,20.8,21.2,21,21.5,21z
	 M22,17h3v3h-3V17z"/>
<path class="st0" d="M30.5,4H22V1.5C22,1.2,21.8,1,21.5,1h-11C10.2,1,10,1.2,10,1.5V4H1.5C1.2,4,1,4.2,1,4.5v3C1,7.8,1.2,8,1.5,8H14
	v22h-1V14.5c0-0.3-0.2-0.5-0.5-0.5h-8C4.2,14,4,14.2,4,14.5v5C4,19.8,3.8,20,3.5,20S3,19.8,3,19.5v-3C3,16.2,2.8,16,2.5,16h-1
	C1.2,16,1,16.2,1,16.5S1.2,17,1.5,17H2v2.5C2,20.3,2.7,21,3.5,21c0.2,0,0.3,0,0.5-0.1V30H1.5C1.2,30,1,30.2,1,30.5S1.2,31,1.5,31h29
	c0.3,0,0.5-0.2,0.5-0.5S30.8,30,30.5,30H28v-9.1c0.2,0.1,0.3,0.1,0.5,0.1c0.8,0,1.5-0.7,1.5-1.5V17h0.5c0.3,0,0.5-0.2,0.5-0.5
	S30.8,16,30.5,16h-1c-0.3,0-0.5,0.2-0.5,0.5v3c0,0.3-0.2,0.5-0.5,0.5S28,19.8,28,19.5v-5c0-0.3-0.2-0.5-0.5-0.5h-8
	c-0.3,0-0.5,0.2-0.5,0.5V30h-1V8h12.5C30.8,8,31,7.8,31,7.5v-3C31,4.2,30.8,4,30.5,4z M11,2h10v2H11V2z M5,15h7v13H5V15z M5,30v-1h7
	v1H5z M27,15v13h-7V15H27z M20,29h7v1h-7V29z M17,30h-2V8h2V30z M30,7H2V5h28V7z"/>
</svg>
