<?xml version="1.0" encoding="utf-8"?>
<!-- Generator: Adobe Illustrator 24.2.3, SVG Export Plug-In . SVG Version: 6.00 Build 0)  -->
<svg version="1.1" id="pharmacy" xmlns="http://www.w3.org/2000/svg" xmlns:xlink="http://www.w3.org/1999/xlink" x="0px" y="0px"
	 viewBox="0 0 32 32" style="enable-background:new 0 0 32 32;" xml:space="preserve">
<style type="text/css">
	.st0{fill:#04f51a;}
</style>
<g>
	<path class="st0" d="M29,6h-7.4c-1.1-3.1-4.5-4.7-7.7-3.6C12.3,3,11,4.3,10.3,6H3C2.4,6,2,6.4,2,7v6c0,0.6,0.4,1,1,1v15
		c0,0.6,0.4,1,1,1h24c0.6,0,1-0.4,1-1V14c0.6,0,1-0.4,1-1V7C30,6.4,29.6,6,29,6z M28,8v4h-7.5c1-1.1,1.5-2.5,1.5-4H28z M16,4
		c2.2,0,4,1.8,4,4s-1.8,4-4,4s-4-1.8-4-4S13.8,4,16,4z M4,8h6c0,1.5,0.6,2.9,1.5,4H4V8z M8,28v-6h4v6H8z M27,28H14v-7
		c0-0.6-0.4-1-1-1H7c-0.6,0-1,0.4-1,1v7H5V14h22V28z"/>
	<path class="st0" d="M14,9h1v1c0,0.6,0.4,1,1,1c0.6,0,1-0.4,1-1V9h1c0.6,0,1-0.4,1-1s-0.4-1-1-1h-1V6c0-0.6-0.4-1-1-1
		c-0.6,0-1,0.4-1,1v1h-1c-0.6,0-1,0.4-1,1S13.4,9,14,9z M16,23c0,0.6,0.4,1,1,1h8c0.6,0,1-0.4,1-1v-6c0-0.6-0.4-1-1-1h-8
		c-0.6,0-1,0.4-1,1V23z M18,18h6v4h-6V18z"/>
</g>
</svg>
