<?xml version="1.0" encoding="utf-8"?>
<!-- Generator: Adobe Illustrator 24.2.3, SVG Export Plug-In . SVG Version: 6.00 Build 0)  -->
<svg version="1.1" id="store" xmlns="http://www.w3.org/2000/svg" xmlns:xlink="http://www.w3.org/1999/xlink" x="0px" y="0px"
	 viewBox="0 0 32 33" style="enable-background:new 0 0 32 33;" xml:space="preserve">
<style type="text/css">
	.st0{fill:#04f51a;}
</style>
<path class="st0" d="M2.1,10.9l1.5-4.6C4,5,5.2,4.2,6.4,4.2c4,0,15.1,0,19.1,0c1.3,0,2.4,0.8,2.8,2.1l1.5,4.6c0,0.1,0,0.2,0.1,0.3v0
	l0,0v0c0,0,0,1.8,0,3.4c0,1-0.4,1.9-1.1,2.5c-0.3,0.3-0.6,0.5-0.9,0.7v7.4c0,0.8-0.3,1.6-0.9,2.1c-0.6,0.6-1.3,0.9-2.1,0.9H7
	c-0.8,0-1.6-0.3-2.1-0.9C4.3,26.8,4,26,4,25.2v-7.4c-0.3-0.2-0.7-0.4-0.9-0.7C2.4,16.5,2,15.6,2,14.6v-3.4v0l0,0C2,11,2,11,2.1,10.9
	z M8.2,17.1C8.2,17.1,8.2,17.1,8.2,17.1c-0.6,0.6-1.4,1-2.2,1.1v7c0,0.3,0.1,0.5,0.3,0.7c0.2,0.2,0.4,0.3,0.7,0.3h5v-3
	c0-1.1,0.4-2.1,1.2-2.8c0.8-0.8,1.8-1.2,2.8-1.2c0,0,0,0,0,1v-1c1.1,0,2.1,0.4,2.8,1.2c0.8,0.8,1.2,1.8,1.2,2.8v3h5
	c0.3,0,0.5-0.1,0.7-0.3c0.2-0.2,0.3-0.4,0.3-0.7v-7c-0.8-0.1-1.6-0.5-2.1-1c0,0,0,0-0.1-0.1c0,0,0,0-0.1,0.1
	c-0.7,0.7-1.6,1.1-2.5,1.1c0,0,0,0,0,0c-1,0-1.9-0.4-2.5-1.1c0,0,0,0-0.1-0.1c0,0,0,0-0.1,0.1c-0.7,0.7-1.6,1.1-2.5,1.1c0,0,0,0,0,0
	c-1,0-1.9-0.4-2.5-1.1c0,0,0,0-0.1-0.1c0,0,0,0-0.1,0.1c-0.7,0.7-1.6,1.1-2.5,1.1c0,0,0,0,0,0C9.8,18.2,8.9,17.8,8.2,17.1
	C8.2,17.1,8.2,17.1,8.2,17.1z M18,26.2v-3c0-0.5-0.2-1-0.6-1.4s-0.9-0.6-1.4-0.6v-1v1c-0.5,0-1,0.2-1.4,0.6S14,22.7,14,23.2v3H18z
	 M12.4,12.2H9.2v2.4c0,0.4,0.2,0.8,0.5,1.1c0.3,0.3,0.7,0.5,1.1,0.5c0,0,0,0,0,0c0.4,0,0.8-0.2,1.1-0.5c0.3-0.3,0.5-0.7,0.5-1.1
	V12.2z M28,12.2h-3.2v2.4c0,0.4,0.2,0.8,0.5,1.1c0.3,0.3,0.7,0.5,1.1,0.5c0,0,0,0,0,0c0.4,0,0.8-0.2,1.1-0.5
	c0.3-0.3,0.5-0.7,0.5-1.1V12.2z M17.6,12.2h-3.2v2.4c0,0.4,0.2,0.8,0.5,1.1c0.3,0.3,0.7,0.5,1.1,0.5c0,0,0,0,0,0
	c0.4,0,0.8-0.2,1.1-0.5c0.3-0.3,0.5-0.7,0.5-1.1V12.2z M7.2,12.2H4v2.4c0,0.4,0.2,0.8,0.5,1.1c0.3,0.3,0.7,0.5,1.1,0.5c0,0,0,0,0,0
	c0.4,0,0.8-0.2,1.1-0.5C7,15.4,7.2,15,7.2,14.6V12.2z M22.8,12.2h-3.2v2.4c0,0.4,0.2,0.8,0.5,1.1c0.3,0.3,0.7,0.5,1.1,0.5
	c0,0,0,0,0,0c0.4,0,0.8-0.2,1.1-0.5c0.3-0.3,0.5-0.7,0.5-1.1V12.2z M4.4,10.2h23.2l-1.1-3.3c-0.1-0.4-0.5-0.7-0.9-0.7
	c-4,0-15.1,0-19.1,0C6,6.2,5.6,6.5,5.5,6.9L4.4,10.2z"/>
</svg>
