<?xml version="1.0" encoding="utf-8"?>
<!-- Generator: Adobe Illustrator 24.2.3, SVG Export Plug-In . SVG Version: 6.00 Build 0)  -->
<svg version="1.1" id="Capa_1" xmlns="http://www.w3.org/2000/svg" xmlns:xlink="http://www.w3.org/1999/xlink" x="0px" y="0px"
	 viewBox="0 0 259.3 193.9" style="enable-background:new 0 0 259.3 193.9;" xml:space="preserve">
<style type="text/css">
	.st0{fill:#03AA03;}
	.st1{fill:#FEFEFE;}
</style>
<g>
	<path class="st0" d="M191.5,95c-0.1,32.7-26.7,59.1-59.4,59.1c-32.7-0.1-59.3-26.6-59.2-59.3s26.7-59.2,59.5-59.1
		C165.1,35.7,191.6,62.3,191.5,95z"/>
	<path class="st1" d="M132.2,85c-9.4,0-18.9,0-28.3,0c-0.9,0-1.3,0.1-1.3,1.2c0,11.7,0,23.5,0,35.2c0,2.1,0.8,2.9,3,2.9
		c6.9,0,13.8,0,20.7,0c0.4,0,0.8,0,1.2,0c1.3,0.2,2.3,1.3,2.2,2.6c-0.1,1.3-1.1,2.3-2.5,2.3c-7.6,0-15.1,0.1-22.7,0
		c-3.9-0.1-6.9-3.4-7-7.4c0-4.9,0-9.8,0-14.7c0-11.3,0.1-22.5,0-33.8c0-4.6,3.4-8.3,8.1-8c0.8,0.1,1.6,0,2.4,0c1.9,0,1.9,0,1.9-1.8
		c0-0.3,0-0.6,0-1c0.2-1.3,1.2-2.2,2.4-2.2c1.3,0,2.3,1,2.5,2.3c0,0.2,0,0.3,0,0.5c0,2.2,0,2.2,2.2,2.2c3.9,0,7.8,0,11.6,0
		c0.8,0,1.1-0.2,1-1c-0.1-0.6,0-1.1,0-1.7c0.1-1.3,1.2-2.3,2.5-2.3s2.3,1,2.4,2.3v0.1c0.1,2.5,0.1,2.5,2.7,2.5c3.7,0,7.4,0,11,0
		c0.8,0,1.2-0.2,1.1-1.1c-0.1-0.6,0-1.1,0-1.7c0.1-1.3,1.1-2.2,2.4-2.2c1.2,0,2.3,0.9,2.5,2.1c0.1,0.6,0.1,1.2,0,1.8
		c-0.1,0.9,0.3,1.1,1.1,1c1.4-0.1,2.7,0,4.1,0c4,0.1,7.1,3.2,7.2,7.2c0.1,5.7,0,11.4,0,17.1c0,1.6-1,2.7-2.4,2.7s-2.5-1.1-2.5-2.6
		c0-1.1-0.1-2.2,0-3.3c0.1-1.1-0.2-1.5-1.4-1.4C150.9,85,141.5,85,132.2,85z"/>
	<path class="st1" d="M127.2,109.6c0-10.9,8.8-19.7,19.7-19.7c10.8,0,19.8,8.8,19.8,19.7c0,10.8-8.8,19.7-19.7,19.7
		C136.1,129.3,127.2,120.4,127.2,109.6z"/>
	<path class="st0" d="M132.1,80c-9.4,0-18.9,0-28.3,0c-0.9,0-1.2-0.2-1.2-1.2c0.1-2,0-4,0-6c0-1.7,0.9-2.6,2.5-2.7
		c1.4,0,2.7,0,4.1,0c0.6,0,0.8,0.2,0.7,0.8c0,0.6,0,1.3,0,1.9c0.1,1.3,1.2,2.3,2.5,2.3s2.3-1,2.4-2.4v-0.1c0.1-2.5,0.1-2.5,2.6-2.5
		c3.7,0,7.4,0,11.2,0c0.8,0,1.2,0.2,1.1,1.1c-0.1,0.6,0,1.1,0,1.7c0.1,1.3,1.1,2.2,2.4,2.2c1.3,0,2.3-1,2.5-2.3
		c0.1-0.9-0.4-2,0.2-2.5c0.7-0.5,1.8-0.2,2.8-0.2c3.6,0,7.1,0,10.7,0c0.9,0,1.3,0.2,1.1,1.1c-0.1,0.5,0,1.1,0,1.7
		c0.1,1.2,1.2,2.2,2.4,2.2s2.2-0.9,2.4-2.1c0-0.2,0-0.4,0.1-0.6c0.1-2.3,0.1-2.3,2.4-2.3c0.8,0,1.6,0,2.4,0c1.6,0.1,2.5,1,2.5,2.6
		c0,2-0.1,4,0,6c0,1-0.2,1.3-1.2,1.3C151,80,141.6,80,132.1,80z"/>
	<path class="st0" d="M161.7,109.6c0,8.2-6.6,14.7-14.8,14.7s-14.7-6.6-14.7-14.8c0-8.1,6.7-14.7,14.8-14.7
		C155.1,94.8,161.7,101.4,161.7,109.6z"/>
	<path class="st1" d="M140.8,107.1c0.7,0,1.4,0.3,1.9,0.8c0.7,0.7,1.5,1.4,2.2,2.2c0.5,0.6,0.7,0.4,1.1-0.1c1.6-2.3,3.3-4.5,5-6.7
		c0.7-0.9,1.6-1.3,2.7-1.1c1,0.2,1.6,0.9,1.8,2c0.1,0.8-0.1,1.4-0.6,2c-2.4,3.2-4.8,6.4-7.2,9.6c-1,1.4-2.6,1.5-3.8,0.4
		c-1.7-1.6-3.3-3.2-4.9-4.9c-0.8-0.8-0.9-1.8-0.5-2.8C139,107.6,139.7,107.2,140.8,107.1z"/>
</g>
</svg>
