<?xml version="1.0" encoding="utf-8"?>
<!-- Generator: Adobe Illustrator 24.2.3, SVG Export Plug-In . SVG Version: 6.00 Build 0)  -->
<svg version="1.1" id="Capa_1" xmlns="http://www.w3.org/2000/svg" xmlns:xlink="http://www.w3.org/1999/xlink" x="0px" y="0px"
	 viewBox="0 0 259.3 193.9" style="enable-background:new 0 0 259.3 193.9;" xml:space="preserve">
<style type="text/css">
	.st0{fill:#03AA03;}
	.st1{fill:#FEFEFE;}
</style>
<path class="st0" d="M135.5,148.5c-32.7,0-59.2-26.5-59.2-59.2c0-32.8,26.5-59.3,59.2-59.3s59.2,26.6,59.2,59.3
	C194.6,122,168.1,148.5,135.5,148.5z"/>
<path class="st1" d="M124.3,125.6c-7.3,0-14.5,0-21.8,0c-2.5,0-3.8-1.3-3.8-3.8c0-12.9,9.9-23.9,22.7-25.2c13.5-1.3,25,7,27.9,20.2
	c0.4,1.7,0.5,3.4,0.5,5.1c0,2.4-1.4,3.7-3.8,3.7C138.8,125.6,131.6,125.6,124.3,125.6z"/>
<path class="st1" d="M155.3,97.7c-0.2-1.4-0.4-2.8-0.6-4.2c-0.3-2.5,1.2-4.3,3.7-4.4c1.7-0.1,3.4-0.1,5.1,0c0.7,0,0.9-0.2,0.9-1
	c0-9.1,0-18.2,0-27.3c0-1.1-0.6-1-1.3-1c-12.6,0-25.2,0-37.8,0c-0.6,0-1.1,0-1.7-0.1c-2-0.3-3.2-1.7-3.1-3.7
	c0.1-1.9,1.5-3.4,3.4-3.5c0.3,0,0.6,0,0.8,0c14.2,0,28.5,0,42.7,0c3,0,4.1,1.2,4.1,4.1c0,11.9,0,23.9,0,35.8c0,2.7-1.2,3.9-4,3.9
	c-1.5,0-3,0-4.4,0c-0.5,0-0.7,0.1-0.6,0.7c0.6,4.3,1.1,8.5,1.7,12.8c0.3,2-0.4,3.6-1.9,4.3c-1.6,0.7-3.7,0.2-4.9-1.4
	c-4.1-5-8.1-10-12.1-15.1c-0.8-1-1.5-1.4-2.8-1.3c-2.6,0.1-4.1-1.8-3.7-4.4c0.2-1.5,1.4-2.7,3-2.8c1.7-0.2,3.3-0.1,5,0
	c1.1,0.1,1.9,0.6,2.6,1.5c1.8,2.4,3.6,4.7,5.5,7.1C155.1,97.8,155.2,97.7,155.3,97.7z"/>
<path class="st1" d="M109.7,78.1c0-8.1,6.6-14.5,14.7-14.5S139,70.2,139,78.3c0,8-6.7,14.5-14.7,14.5
	C116.2,92.7,109.7,86.1,109.7,78.1z"/>
</svg>
