<svg id="Capa_1" data-name="Capa 1" xmlns="http://www.w3.org/2000/svg" viewBox="0 0 259.3 193.9"><defs><style>.cls-1{fill:#03aa03;}.cls-2{fill:#fefefe;}</style></defs><path class="cls-1" d="M193.28,90.2A59.25,59.25,0,1,1,134.08,31,59.26,59.26,0,0,1,193.28,90.2Z"/><path class="cls-2" d="M134.78,53.5A62.37,62.37,0,0,1,178.48,72c2,2,2.2,4.6.4,6.5s-4.3,1.6-6.4-.3a53.1,53.1,0,0,0-30.9-15.4c-17.6-2.3-33,2.8-45.9,15a5.62,5.62,0,0,1-3.1,1.9,4.3,4.3,0,0,1-4.4-2.3,4.47,4.47,0,0,1,.9-5.1,62.23,62.23,0,0,1,7.3-6.3C107.58,57.7,120.18,53.7,134.78,53.5Z"/><path class="cls-2" d="M168.18,87.7a4.39,4.39,0,0,1-2.5,3.8,4.1,4.1,0,0,1-4.7-.7c-1.4-1.2-2.7-2.5-4.1-3.6a38,38,0,0,0-49.3,2.9l-.5.5a4.23,4.23,0,0,1-6.2,0,4.32,4.32,0,0,1,.2-6.2,45.17,45.17,0,0,1,25.3-13c15.4-2.3,28.8,2.1,40.1,12.8A4.27,4.27,0,0,1,168.18,87.7Z"/><path class="cls-2" d="M134,105a12.8,12.8,0,1,1-12.7,12.7A12.68,12.68,0,0,1,134,105Z"/><path class="cls-2" d="M151.88,103.9a4.59,4.59,0,0,1-3.2-1.5,20.41,20.41,0,0,0-15.5-6,20.13,20.13,0,0,0-13.9,6,4.29,4.29,0,1,1-6.2-5.9,28.35,28.35,0,0,1,13.2-7.6c10.9-2.7,20.5-.1,28.7,7.6a4.22,4.22,0,0,1-.5,6.8A4.37,4.37,0,0,1,151.88,103.9Z"/><path class="cls-1" d="M134,122a4.23,4.23,0,0,1-4.2-4.2,4.31,4.31,0,0,1,4.2-4.3,4.25,4.25,0,0,1,0,8.5Z"/></svg>