<?xml version="1.0" encoding="utf-8"?>
<!-- Generator: Adobe Illustrator 24.2.3, SVG Export Plug-In . SVG Version: 6.00 Build 0)  -->
<svg version="1.1" id="Capa_1" xmlns="http://www.w3.org/2000/svg" xmlns:xlink="http://www.w3.org/1999/xlink" x="0px" y="0px"
	 viewBox="0 0 259.3 193.9" style="enable-background:new 0 0 259.3 193.9;" xml:space="preserve">
<style type="text/css">
	.st0{fill:#03AA03;}
	.st1{fill:#FEFEFE;}
</style>
<g>
	<path class="st0" d="M125.2,151.3c-32.7,0-59.2-26.5-59.2-59.2s26.6-59.3,59.3-59.2c32.7,0,59.2,26.6,59.1,59.2
		C184.4,124.8,157.9,151.3,125.2,151.3z"/>
	<path class="st1" d="M119.9,54.2c3.6,0.1,6.7,1.8,8.9,5.1c1.3,2,2.6,4,3.9,6c0.5,0.7,0.5,1.1-0.3,1.6c-9.2,6.4-18.3,12.7-27.4,19.2
		c-2.2,1.6-4.4,2.6-7.2,2.8c-5.4,0.4-10.7,1-16.1,1.6c-0.6,0.1-0.8-0.2-1.1-0.6c-1.4-2.2-2.9-4.4-4.4-6.6c-0.5-0.7-0.4-1,0.3-1.5
		C85.7,75.4,94.8,69,104,62.5c2.9-2.1,5.9-4.1,8.8-6.2C114.9,54.9,117.1,54.2,119.9,54.2z"/>
	<path class="st1" d="M154,104.8c2.9,0,5.7,0,8.6,0c0.6,0,0.9-0.1,1-0.8c0.6-2.5,2.4-3.9,5-4c0.8,0,1.6,0,2.4,0
		c0.9-0.1,1.1,0.3,1.1,1.1c0,4.6,0,9.3,0,13.9c0,0.8-0.2,1.1-1,1s-1.7,0-2.5,0c-2.5,0-4.4-1.5-4.9-3.9c-0.1-0.7-0.4-0.9-1.1-0.9
		c-5.7,0-11.5,0-17.2,0c-0.6,0-0.9,0.2-1.3,0.6c-1.9,2.3-4.7,2.9-7.2,1.6s-3.8-4.1-3-6.9c0.2-0.8,0-1.3-0.4-1.8
		c-2.2-2.9-4.4-5.9-6.5-8.9c-0.4-0.6-0.7-0.8-1.5-0.3c-1.8,1.4-2.3,1.2-3.6-0.7c-0.7-1.1-2-2.2-1.8-3.2c0.2-0.9,1.8-1.5,2.8-2.2
		c2.5-1.8,5.1-3.6,7.6-5.4c0.5-0.4,0.8-0.4,1.2,0.2c0.6,1.1,1.4,2.1,2,3.1c0.8,1.3,0.6,1.9-0.6,2.8c-1.7,1.2-1.7,1.2-0.5,2.9
		c2,2.7,4,5.4,6,8.2c0.4,0.5,0.7,0.7,1.4,0.8c1.6,0.1,3,0.8,4,2.1c0.4,0.6,0.9,0.7,1.5,0.7C148.4,104.8,151.2,104.8,154,104.8z"/>
	<path class="st1" d="M97.9,103.8c-2.5-3.8-5-7.6-7.6-11.6c2.1-0.2,4.1-0.4,6-0.6c1.8-0.2,3.6-0.4,5.5-0.5c0.8-0.1,1.4-0.5,2-0.9
		c9.1-6.4,18.1-12.7,27.2-19.1c0.7-0.5,1-0.5,1.5,0.3c1,1.7,2.1,3.3,3.2,4.9c0.3,0.5,0.4,0.7-0.1,1.1
		C123.1,86.2,110.5,95,97.9,103.8z"/>
	<path class="st1" d="M87.6,93.1c0.4,0,0.4,0.2,0.5,0.4c1.5,2.3,3,4.6,4.5,6.9c0.3,0.4,0.2,0.7-0.2,1c-2.8,2.3-2.8,2.3-4.7-0.7
		c-1-1.5-2-3.1-3-4.6c-0.4-0.5-0.4-0.8,0.2-1.2C85.9,94.3,86.7,93.7,87.6,93.1z"/>
</g>
</svg>
