<?xml version="1.0" encoding="utf-8"?>
<!-- Generator: Adobe Illustrator 24.2.3, SVG Export Plug-In . SVG Version: 6.00 Build 0)  -->
<svg version="1.1" id="Capa_1" xmlns="http://www.w3.org/2000/svg" xmlns:xlink="http://www.w3.org/1999/xlink" x="0px" y="0px"
	 viewBox="0 0 259.3 193.9" style="enable-background:new 0 0 259.3 193.9;" xml:space="preserve">
<style type="text/css">
	.st0{fill:#03AA03;}
	.st1{fill:#FEFEFE;}
	.st2{fill:#F3FAF3;}
	.st3{fill:#FFFFFF;}
</style>
<g>
	<path class="st0" d="M761.2,95c-0.1,32.7-26.7,59.1-59.4,59.1c-32.7-0.1-59.3-26.6-59.2-59.3s26.7-59.2,59.5-59.1
		C734.8,35.7,761.3,62.3,761.2,95z"/>
	<path class="st1" d="M701.9,85c-9.4,0-18.9,0-28.3,0c-0.9,0-1.3,0.1-1.3,1.2c0,11.7,0,23.5,0,35.2c0,2.1,0.8,2.9,3,2.9
		c6.9,0,13.8,0,20.7,0c0.4,0,0.8,0,1.2,0c1.3,0.2,2.3,1.3,2.2,2.6c-0.1,1.3-1.1,2.3-2.5,2.3c-7.6,0-15.1,0.1-22.7,0
		c-3.9-0.1-6.9-3.4-7-7.4c0-4.9,0-9.8,0-14.7c0-11.3,0.1-22.5,0-33.8c0-4.6,3.4-8.3,8.1-8c0.8,0.1,1.6,0,2.4,0c1.9,0,1.9,0,1.9-1.8
		c0-0.3,0-0.6,0-1c0.2-1.3,1.2-2.2,2.4-2.2c1.3,0,2.3,1,2.5,2.3c0,0.2,0,0.3,0,0.5c0,2.2,0,2.2,2.2,2.2c3.9,0,7.8,0,11.6,0
		c0.8,0,1.1-0.2,1-1c-0.1-0.6,0-1.1,0-1.7c0.1-1.3,1.2-2.3,2.5-2.3s2.3,1,2.4,2.3v0.1c0.1,2.5,0.1,2.5,2.7,2.5c3.7,0,7.4,0,11,0
		c0.8,0,1.2-0.2,1.1-1.1c-0.1-0.6,0-1.1,0-1.7c0.1-1.3,1.1-2.2,2.4-2.2c1.2,0,2.3,0.9,2.5,2.1c0.1,0.6,0.1,1.2,0,1.8
		c-0.1,0.9,0.3,1.1,1.1,1c1.4-0.1,2.7,0,4.1,0c4,0.1,7.1,3.2,7.2,7.2c0.1,5.7,0,11.4,0,17.1c0,1.6-1,2.7-2.4,2.7s-2.5-1.1-2.5-2.6
		c0-1.1-0.1-2.2,0-3.3c0.1-1.1-0.2-1.5-1.4-1.4C720.6,85,711.2,85,701.9,85z"/>
	<path class="st1" d="M696.9,109.6c0-10.9,8.8-19.7,19.7-19.7c10.8,0,19.8,8.8,19.8,19.7c0,10.8-8.8,19.7-19.7,19.7
		C705.8,129.3,696.9,120.4,696.9,109.6z"/>
	<path class="st0" d="M701.8,80c-9.4,0-18.9,0-28.3,0c-0.9,0-1.2-0.2-1.2-1.2c0.1-2,0-4,0-6c0-1.7,0.9-2.6,2.5-2.7
		c1.4,0,2.7,0,4.1,0c0.6,0,0.8,0.2,0.7,0.8c0,0.6,0,1.3,0,1.9c0.1,1.3,1.2,2.3,2.5,2.3s2.3-1,2.4-2.4v-0.1c0.1-2.5,0.1-2.5,2.6-2.5
		c3.7,0,7.4,0,11.2,0c0.8,0,1.2,0.2,1.1,1.1c-0.1,0.6,0,1.1,0,1.7c0.1,1.3,1.1,2.2,2.4,2.2c1.3,0,2.3-1,2.5-2.3
		c0.1-0.9-0.4-2,0.2-2.5c0.7-0.5,1.8-0.2,2.8-0.2c3.6,0,7.1,0,10.7,0c0.9,0,1.3,0.2,1.1,1.1c-0.1,0.5,0,1.1,0,1.7
		c0.1,1.2,1.2,2.2,2.4,2.2s2.2-0.9,2.4-2.1c0-0.2,0-0.4,0.1-0.6c0.1-2.3,0.1-2.3,2.4-2.3c0.8,0,1.6,0,2.4,0c1.6,0.1,2.5,1,2.5,2.6
		c0,2-0.1,4,0,6c0,1-0.2,1.3-1.2,1.3C720.7,80,711.3,80,701.8,80z"/>
	<path class="st0" d="M731.4,109.6c0,8.2-6.6,14.7-14.8,14.7s-14.7-6.6-14.7-14.8c0-8.1,6.7-14.7,14.8-14.7
		C724.8,94.8,731.4,101.4,731.4,109.6z"/>
	<path class="st1" d="M710.5,107.1c0.7,0,1.4,0.3,1.9,0.8c0.7,0.7,1.5,1.4,2.2,2.2c0.5,0.6,0.7,0.4,1.1-0.1c1.6-2.3,3.3-4.5,5-6.7
		c0.7-0.9,1.6-1.3,2.7-1.1c1,0.2,1.6,0.9,1.8,2c0.1,0.8-0.1,1.4-0.6,2c-2.4,3.2-4.8,6.4-7.2,9.6c-1,1.4-2.6,1.5-3.8,0.4
		c-1.7-1.6-3.3-3.2-4.9-4.9c-0.8-0.8-0.9-1.8-0.5-2.8C708.7,107.6,709.4,107.2,710.5,107.1z"/>
</g>
<path class="st0" d="M1914,148.5c-32.7,0-59.2-26.5-59.2-59.2c0-32.8,26.5-59.3,59.2-59.3s59.2,26.6,59.2,59.3
	C1973.1,122,1946.6,148.5,1914,148.5z"/>
<path class="st1" d="M1902.8,125.6c-7.3,0-14.5,0-21.8,0c-2.5,0-3.8-1.3-3.8-3.8c0-12.9,9.9-23.9,22.7-25.2c13.5-1.3,25,7,27.9,20.2
	c0.4,1.7,0.5,3.4,0.5,5.1c0,2.4-1.4,3.7-3.8,3.7C1917.3,125.6,1910.1,125.6,1902.8,125.6z"/>
<path class="st1" d="M1933.8,97.7c-0.2-1.4-0.4-2.8-0.6-4.2c-0.3-2.5,1.2-4.3,3.7-4.4c1.7-0.1,3.4-0.1,5.1,0c0.7,0,0.9-0.2,0.9-1
	c0-9.1,0-18.2,0-27.3c0-1.1-0.6-1-1.3-1c-12.6,0-25.2,0-37.8,0c-0.6,0-1.1,0-1.7-0.1c-2-0.3-3.2-1.7-3.1-3.7
	c0.1-1.9,1.5-3.4,3.4-3.5c0.3,0,0.6,0,0.8,0c14.2,0,28.5,0,42.7,0c3,0,4.1,1.2,4.1,4.1c0,11.9,0,23.9,0,35.8c0,2.7-1.2,3.9-4,3.9
	c-1.5,0-3,0-4.4,0c-0.5,0-0.7,0.1-0.6,0.7c0.6,4.3,1.1,8.5,1.7,12.8c0.3,2-0.4,3.6-1.9,4.3c-1.6,0.7-3.7,0.2-4.9-1.4
	c-4.1-5-8.1-10-12.1-15.1c-0.8-1-1.5-1.4-2.8-1.3c-2.6,0.1-4.1-1.8-3.7-4.4c0.2-1.5,1.4-2.7,3-2.8c1.7-0.2,3.3-0.1,5,0
	c1.1,0.1,1.9,0.6,2.6,1.5c1.8,2.4,3.6,4.7,5.5,7.1C1933.6,97.8,1933.7,97.7,1933.8,97.7z"/>
<path class="st1" d="M1888.2,78.1c0-8.1,6.6-14.5,14.7-14.5s14.6,6.6,14.6,14.7c0,8-6.7,14.5-14.7,14.5
	C1894.7,92.7,1888.2,86.1,1888.2,78.1z"/>
<path class="st0" d="M1300.5,150.4c-32.7,0-59.2-26.5-59.2-59.2c0-32.8,26.5-59.3,59.2-59.3s59.2,26.6,59.2,59.3
	C1359.6,123.9,1333.1,150.4,1300.5,150.4z"/>
<g>
	<path class="st0" d="M123.2,157.4c-32.7,0-59.2-26.5-59.2-59.2S90.5,38.9,123.3,39c32.7,0,59.2,26.5,59.2,59.2
		C182.4,130.8,155.9,157.4,123.2,157.4z"/>
	<path class="st1" d="M123.8,63.8c11.6,0,23.2,0,34.8,0c3.3,0,5,1.6,5,5c0,5.6,0,11.2,0,16.8c0,2.5-1.7,4.3-4.2,4.4
		c-0.2,0-0.5,0-0.7,0c-23.3,0-46.5,0-69.8,0c-2.7,0-4.3-1.1-4.9-3.3c-0.1-0.4-0.1-0.9-0.1-1.3c0-5.6,0-11.3,0-16.9
		c0-2.8,1.9-4.7,4.7-4.7C100.4,63.8,112.1,63.8,123.8,63.8z"/>
	<path class="st1" d="M146.8,118.9c-1.9,0-3.7,0-5.6,0c-1.8,0-2.9-1.1-2.9-2.9c0-3.6,0-7.2,0-10.9c0-1.9,1.1-2.9,3-3
		c3.7,0,7.5,0,11.2,0c1.9,0,2.9,1.1,3,3c0,3.6,0,7.2,0,10.8c0,2-1,3-3,3C150.6,118.9,148.7,118.9,146.8,118.9z"/>
	<path class="st1" d="M100.5,118.9c-1.9,0-3.7,0-5.6,0c-1.7,0-2.8-1-2.8-2.7c0-3.7,0-7.5,0-11.2c0-1.7,1.1-2.8,2.8-2.8
		c3.9,0,7.7,0,11.6,0c1.7,0,2.8,1.1,2.8,2.8c0,3.7,0,7.4,0,11.1c0,1.8-1.1,2.8-2.9,2.8C104.4,118.9,102.5,118.9,100.5,118.9z"/>
	<path class="st1" d="M123.7,118.9c-1.9,0-3.8,0-5.6,0c-1.9,0-2.9-1-2.9-2.9c0-3.6,0-7.3,0-10.9c0-1.9,1-2.9,3-2.9
		c3.7,0,7.4,0,11.1,0c2,0,3,1,3,2.9c0,3.6,0,7.3,0,10.9c0,2-1,2.9-3,2.9C127.5,118.9,125.6,118.9,123.7,118.9z"/>
	<path class="st1" d="M105.2,127.3c0,1.9,0,3.7,0,5.6c0,0.9-0.3,1.2-1.2,1.2c-2.2,0-4.5,0-6.7,0c-0.9,0-1.2-0.4-1.2-1.2
		c0-3.8,0-7.6,0-11.3c0-0.7,0.3-0.9,0.9-0.9c2.4,0,4.9,0,7.3,0c0.7,0,0.9,0.2,0.9,0.9C105.2,123.4,105.2,125.4,105.2,127.3z"/>
	<path class="st1" d="M119.3,127.2c0-1.9,0-3.7,0-5.6c0-0.7,0.2-0.9,0.9-0.9c2.4,0,4.9,0,7.3,0c0.7,0,0.9,0.2,0.9,0.9
		c0,3.7,0,7.5,0,11.2c0,0.9-0.3,1.3-1.3,1.3c-2.2,0-4.4,0-6.6,0c-1,0-1.2-0.4-1.2-1.3C119.3,130.9,119.3,129.1,119.3,127.2z"/>
	<path class="st1" d="M151.4,127.3c0,1.8,0,3.6,0,5.4c0,1-0.3,1.5-1.3,1.4c-2.2-0.1-4.3,0-6.5,0c-0.9,0-1.3-0.3-1.3-1.2
		c0-3.8,0-7.6,0-11.4c0-0.6,0.2-0.8,0.8-0.8c2.5,0,4.9,0,7.4,0c0.7,0,0.9,0.2,0.9,0.9C151.4,123.5,151.4,125.4,151.4,127.3z"/>
	<path class="st1" d="M100.5,100.5c-1.4,0-2.7,0-4.1,0c-0.6,0-0.8-0.2-0.8-0.8c-0.1-2.3,0.7-4,3.6-3.8c1.2,0.1,2.5,0,3.7,0
		c2,0.1,3.5,2.5,2.7,4.3c-0.2,0.4-0.5,0.2-0.8,0.2C103.4,100.5,102,100.5,100.5,100.5z"/>
	<path class="st1" d="M146.9,100.5c-1.3,0-2.6,0-3.9,0c-0.7,0-1-0.1-1-1c0-2.7,0.8-3.6,3.5-3.6c1.2,0,2.4,0,3.6,0
		c2.2,0,3.6,2.2,2.9,4.3c-0.2,0.5-0.5,0.3-0.8,0.3C149.7,100.5,148.3,100.5,146.9,100.5z"/>
	<path class="st1" d="M123.7,100.5c-1.4,0-2.7,0-4.1,0c-0.7,0-0.8-0.2-0.9-0.9c0-2.8,0.8-3.7,3.6-3.7c1.3,0,2.6,0,3.8,0
		c2,0.1,3.4,2.6,2.6,4.3c-0.2,0.4-0.5,0.2-0.8,0.3C126.5,100.5,125.1,100.5,123.7,100.5z"/>
	<path class="st0" d="M147,69.3c1.6,0,3.1,0,4.7,0c1.7,0,2.6,0.9,2.6,2.6c0,1.8,0,3.7,0,5.5c0,1.5-0.7,2.4-2.2,2.7
		c-0.8,0.1-0.8,0.5-0.9,1.1c-0.1,2.9-0.6,3.4-3.6,3.4c-0.8,0-1.6,0-2.4,0c-1.7,0-2.7-1-2.6-2.6c0.1-1.2-0.2-2-1.6-2.2
		c-1-0.2-1.4-1.1-1.5-2.1c0-2-0.1-4.1,0-6.1c0-1.5,1-2.3,2.5-2.3C143.7,69.3,145.3,69.3,147,69.3z"/>
	<path class="st0" d="M100.7,69.3c1.6,0,3.2,0,4.8,0c1.6,0,2.5,0.9,2.6,2.5c0,1.9,0,3.7,0,5.6c0,1.5-0.7,2.4-2.1,2.6
		c-0.8,0.1-1,0.6-0.9,1.2c0.3,2.4-1,3.6-3.4,3.4c-0.8-0.1-1.6,0-2.4,0c-1.9,0-2.9-0.9-2.8-2.8c0-1.1-0.1-1.8-1.4-2
		c-1.1-0.2-1.6-1.1-1.6-2.2c0-2-0.1-4,0-6c0-1.5,1-2.4,2.5-2.4C97.5,69.3,99.1,69.3,100.7,69.3z"/>
	<path class="st0" d="M123.8,69.3c1.6,0,3.2,0,4.8,0s2.5,0.9,2.5,2.5c0,1.9,0,3.7,0,5.6c0,1.5-0.6,2.3-2.1,2.6
		c-0.7,0.1-0.9,0.5-0.9,1.1c-0.1,2.9-0.7,3.5-3.6,3.5c-0.8,0-1.6,0-2.4,0c-1.7,0-2.7-0.9-2.6-2.7c0-1.1-0.1-1.9-1.4-2.1
		c-1.1-0.2-1.6-1.1-1.6-2.2c0-2,0-4,0-6c0-1.4,1-2.4,2.4-2.4C120.5,69.3,122.1,69.3,123.8,69.3z"/>
</g>
<g>
	<path class="st0" d="M2206.1,139.1c-32.7,0-59.2-26.6-59.1-59.2c0-32.7,26.5-59.2,59.2-59.2s59.3,26.6,59.2,59.3
		C2265.3,112.6,2238.8,139.1,2206.1,139.1z"/>
	<path class="st1" d="M2247.6,59.6c-0.3,18.3-5.3,35-16.8,49.5c-6.4,8-14.2,14.4-23,19.6c-1.1,0.6-2,0.4-3-0.1
		c-10.7-6-19.5-14-26.6-24c-7.8-11.1-12.1-23.4-13-36.9c-0.4-6-0.2-12,0.8-17.9c0.2-1.5,1.1-2.1,2.6-1.9
		c13.4,1.7,25.3-1.7,35.7-10.5c1.7-1.4,2.1-1.4,4-0.2c7.7,5.1,15.9,8.9,25,10.5c3.7,0.6,7.4,0.8,11.1,0.3c1.7-0.2,2.4,0.3,2.6,2
		C2247.4,53.1,2247.5,56.3,2247.6,59.6z"/>
	<path class="st0" d="M2206,100.2c-3.5,0-7.1,0-10.6,0c-2.8,0-4.3-1.5-4.3-4.3c0-5.3,0-10.7,0-16c0-1.6,0.5-3,2-3.8
		c0.5-0.3,0.4-0.7,0.4-1.1c0-2.1-0.1-4.1,0.5-6.2c1.7-6.1,7.6-9.9,14-9.1c5.9,0.8,10.6,6.2,10.6,12.3c0,0.6,0,1.2,0,1.8
		c-0.1,1.2,0,2.2,1.2,2.9c0.9,0.6,1.2,1.7,1.2,2.8c0,5.6,0,11.2,0,16.9c0,2.3-1.6,3.9-4,3.9C2213.3,100.3,2209.6,100.2,2206,100.2z"
		/>
	<path class="st2" d="M2193.4,115.9c-0.3-0.1-0.5-0.2-0.6-0.6C2193.2,115.4,2193.5,115.4,2193.4,115.9z"/>
	<path class="st1" d="M2205.9,96.3c-3.3,0-6.6,0-9.9,0c-0.9,0-1.1-0.2-1-1.1c0-4.9,0-9.8,0-14.7c0-0.9,0.2-1.2,1.2-1.2
		c6.6,0.1,13.2,0,19.8,0c0.8,0,1.2,0.1,1.2,1.1c-0.1,4.9-0.1,9.7,0,14.6c0,1-0.1,1.4-1.3,1.3C2212.5,96.3,2209.2,96.3,2205.9,96.3
		L2205.9,96.3z"/>
	<path class="st1" d="M2205.9,75.5c-2.6,0-5.2,0-7.8,0c-0.8,0-1-0.2-0.9-0.9c0.1-1.3-0.1-2.5,0.2-3.8c0.8-4.6,4.6-7.6,9.3-7.3
		c4.3,0.3,7.8,4,7.9,8.5c0,1.1,0.4,2.5-0.2,3.2c-0.6,0.7-2.1,0.2-3.2,0.2C2209.5,75.5,2207.7,75.5,2205.9,75.5z"/>
	<path class="st0" d="M2205.7,82.4c2.7,0,4.9,2.2,4.9,5c0,2.7-2.2,4.8-4.9,4.8s-4.9-2.2-4.9-5C2200.9,84.6,2203.1,82.4,2205.7,82.4z
		"/>
</g>
<g>
	<path class="st0" d="M997.9,146.3c-32.7,0-59.2-26.6-59.2-59.2c0-32.7,26.6-59.2,59.3-59.2c32.7,0,59.2,26.7,59.1,59.4
		C1057.1,119.9,1030.5,146.4,997.9,146.3z"/>
	<path class="st1" d="M997.7,64.6c0-0.2,0-0.3,0-0.5c0.2-2.1,0.1-3.6-2.6-4.6c-4.1-1.5-5.9-6.4-4.7-10.6c1.3-4.3,5.4-7.1,9.9-6.7
		c4.3,0.5,7.8,4,8.2,8.3c0.4,4.5-2.5,8.6-6.8,9.7c-0.9,0.2-1.1,0.5-1.1,1.4c0.1,2.1,0,4.1,0,6.2c0,0.6,0.2,0.9,0.8,1
		c4.9,0.7,8.9,3,11.9,7c0.3,0.4,0.5,0.5,0.9,0.2c1.9-1.1,3.7-2.2,5.6-3.2c0.7-0.4,0.4-0.8,0.4-1.3c-0.8-4.4,1.6-9.1,5.8-10.8
		c5.9-2.5,12.3,1.8,12.5,8.3c0.2,6-4.5,10.2-9.7,10c-2.6-0.1-4.9-1.2-6.6-3.2c-0.5-0.6-0.8-0.6-1.5-0.3c-1.7,1-3.4,2-5.1,2.9
		c-0.5,0.3-0.6,0.5-0.4,1.1c1.8,4.5,1.8,8.9,0,13.4c-0.2,0.6-0.2,0.8,0.4,1.1c2,1.1,3.9,2.1,5.8,3.3c0.6,0.4,0.9,0.3,1.4-0.2
		c3-2.9,7.2-3.6,10.7-1.7c4.3,2.2,6.1,7.5,4.1,12.1c-2,4.5-7.1,6.6-11.7,4.9s-7-6.7-5.5-11.4c0.3-0.8,0.2-1.2-0.6-1.6
		c-1.8-1-3.6-2-5.4-3c-0.5-0.3-0.8-0.4-1.2,0.2c-2.9,3.9-6.8,6.2-11.6,6.9c-0.8,0.1-1.1,0.4-1.1,1.2c0.1,2,0.1,3.9,0,5.9
		c0,0.8,0.2,1.1,1,1.3c4.4,1.1,7.3,5.1,7,9.6c-0.3,4.2-3.7,7.9-7.9,8.5c-4.7,0.6-9.2-2.5-10.2-7c-1.1-4.8,1.6-9.5,6.2-10.9
		c1.1-0.3,1.3-0.8,1.3-1.8c-0.1-1.9-0.1-3.8,0-5.7c0-0.7-0.2-0.9-0.8-1c-4.9-0.7-8.9-3-11.9-7c-0.4-0.5-0.6-0.4-1.1-0.2
		c-1.8,1.1-3.6,2.1-5.5,3.1c-0.8,0.4-0.9,0.7-0.6,1.5c1.9,6-2.5,12-8.8,12c-4.1,0-7.7-2.8-8.9-6.7c-1.2-4.1,0.4-8.4,3.9-10.6
		s8-1.8,11.1,1.2c0.7,0.7,1.1,0.6,1.9,0.2c1.8-1.1,3.7-2.1,5.5-3.1c0.5-0.3,0.6-0.5,0.4-1.1c-1.8-4.4-1.8-8.9,0-13.4
		c0.3-0.7,0-0.9-0.5-1.2c-1.7-0.9-3.3-1.8-5-2.8c-0.6-0.4-0.9-0.4-1.5,0.2c-2.4,2.7-5.5,3.8-9,3s-5.8-3-6.8-6.4
		c-2-6.5,2.6-12.5,9.2-12.3c5.3,0.2,9.8,5.9,8.7,11.2c-0.2,1-0.1,1.6,0.9,2c1.6,0.8,3.2,1.8,4.8,2.7c0.5,0.3,0.8,0.4,1.2-0.2
		c2.9-3.9,6.8-6.2,11.6-6.9c0.8-0.1,1.2-0.4,1.1-1.2C997.6,66.7,997.7,65.7,997.7,64.6z"/>
</g>
<g>
	<path class="st0" d="M474.3,90.2c0,32.6-26.5,59.2-59.2,59.2s-59.2-26.4-59.3-59.1c0-32.7,26.5-59.3,59.3-59.3
		C447.7,31,474.2,57.5,474.3,90.2z"/>
	<path class="st1" d="M415.8,53.5c16.5,0.3,31.4,6.4,43.7,18.5c2,2,2.2,4.6,0.4,6.5c-1.8,1.8-4.3,1.6-6.4-0.3
		c-8.6-8.5-18.9-13.8-30.9-15.4c-17.6-2.3-33,2.8-45.9,15c-0.9,0.9-1.8,1.7-3.1,1.9c-1.9,0.2-3.6-0.7-4.4-2.3
		c-0.8-1.7-0.5-3.6,0.9-5.1c2.3-2.3,4.7-4.4,7.3-6.3C388.6,57.7,401.2,53.7,415.8,53.5z"/>
	<path class="st1" d="M449.2,87.7c-0.1,1.6-0.9,3-2.5,3.8c-1.7,0.8-3.3,0.5-4.7-0.7c-1.4-1.2-2.7-2.5-4.1-3.6
		c-15-11.3-35.8-10.1-49.3,2.9c-0.2,0.2-0.3,0.3-0.5,0.5c-1.9,1.8-4.5,1.8-6.2,0s-1.6-4.4,0.2-6.2c7.1-7,15.5-11.5,25.3-13
		c15.4-2.3,28.8,2.1,40.1,12.8C448.6,85.1,449.2,86.2,449.2,87.7z"/>
	<path class="st1" d="M415,105c7.1,0,12.7,5.7,12.7,12.8c0,7.1-5.7,12.9-12.8,12.8c-7,0-12.6-5.8-12.6-12.9
		C402.3,110.6,408,105,415,105z"/>
	<path class="st1" d="M432.9,103.9c-1.2,0-2.3-0.6-3.2-1.5c-4.3-4.2-9.5-6.2-15.5-6c-5.4,0.2-10.1,2.2-13.9,6
		c-1.3,1.3-2.8,1.9-4.6,1.3c-3.1-0.9-4-4.8-1.6-7.2c3.7-3.7,8.1-6.3,13.2-7.6c10.9-2.7,20.5-0.1,28.7,7.6c2.2,2,1.9,5.2-0.5,6.8
		C434.8,103.7,433.9,104,432.9,103.9z"/>
	<path class="st0" d="M415,122c-2.3,0-4.2-1.9-4.2-4.2c0-2.3,1.9-4.3,4.2-4.3c2.3,0,4.2,1.9,4.2,4.3C419.2,120.1,417.3,122,415,122z
		"/>
</g>
<g>
	<path class="st0" d="M1611.7,140.3c-32.7,0-59.2-26.5-59.2-59.2s26.6-59.3,59.3-59.2c32.7,0,59.2,26.6,59.1,59.2
		C1670.9,113.8,1644.4,140.3,1611.7,140.3z"/>
	<path class="st1" d="M1606.4,43.2c3.6,0.1,6.7,1.8,8.9,5.1c1.3,2,2.6,4,3.9,6c0.5,0.7,0.5,1.1-0.3,1.6
		c-9.2,6.4-18.3,12.7-27.4,19.2c-2.2,1.6-4.4,2.6-7.2,2.8c-5.4,0.4-10.7,1-16.1,1.6c-0.6,0.1-0.8-0.2-1.1-0.6
		c-1.4-2.2-2.9-4.4-4.4-6.6c-0.5-0.7-0.4-1,0.3-1.5c9.2-6.4,18.3-12.8,27.5-19.3c2.9-2.1,5.9-4.1,8.8-6.2
		C1601.4,43.9,1603.6,43.2,1606.4,43.2z"/>
	<path class="st1" d="M1640.5,93.8c2.9,0,5.7,0,8.6,0c0.6,0,0.9-0.1,1-0.8c0.6-2.5,2.4-3.9,5-4c0.8,0,1.6,0,2.4,0
		c0.9-0.1,1.1,0.3,1.1,1.1c0,4.6,0,9.3,0,13.9c0,0.8-0.2,1.1-1,1s-1.7,0-2.5,0c-2.5,0-4.4-1.5-4.9-3.9c-0.1-0.7-0.4-0.9-1.1-0.9
		c-5.7,0-11.5,0-17.2,0c-0.6,0-0.9,0.2-1.3,0.6c-1.9,2.3-4.7,2.9-7.2,1.6s-3.8-4.1-3-6.9c0.2-0.8,0-1.3-0.4-1.8
		c-2.2-2.9-4.4-5.9-6.5-8.9c-0.4-0.6-0.7-0.8-1.5-0.3c-1.8,1.4-2.3,1.2-3.6-0.7c-0.7-1.1-2-2.2-1.8-3.2c0.2-0.9,1.8-1.5,2.8-2.2
		c2.5-1.8,5.1-3.6,7.6-5.4c0.5-0.4,0.8-0.4,1.2,0.2c0.6,1.1,1.4,2.1,2,3.1c0.8,1.3,0.6,1.9-0.6,2.8c-1.7,1.2-1.7,1.2-0.5,2.9
		c2,2.7,4,5.4,6,8.2c0.4,0.5,0.7,0.7,1.4,0.8c1.6,0.1,3,0.8,4,2.1c0.4,0.6,0.9,0.7,1.5,0.7C1634.9,93.8,1637.7,93.8,1640.5,93.8z"/>
	<path class="st1" d="M1584.4,92.8c-2.5-3.8-5-7.6-7.6-11.6c2.1-0.2,4.1-0.4,6-0.6c1.8-0.2,3.6-0.4,5.5-0.5c0.8-0.1,1.4-0.5,2-0.9
		c9.1-6.4,18.1-12.7,27.2-19.1c0.7-0.5,1-0.5,1.5,0.3c1,1.7,2.1,3.3,3.2,4.9c0.3,0.5,0.4,0.7-0.1,1.1
		C1609.6,75.2,1597,84,1584.4,92.8z"/>
	<path class="st1" d="M1574.1,82.1c0.4,0,0.4,0.2,0.5,0.4c1.5,2.3,3,4.6,4.5,6.9c0.3,0.4,0.2,0.7-0.2,1c-2.8,2.3-2.8,2.3-4.7-0.7
		c-1-1.5-2-3.1-3-4.6c-0.4-0.5-0.4-0.8,0.2-1.2C1572.4,83.3,1573.2,82.7,1574.1,82.1z"/>
</g>
<g>
	<path class="st3" d="M1341.5,73.7h-19.9v2.7h19.9c0.7,0,1.3,0.6,1.3,1.3v34.6c0,0.7-0.6,1.3-1.3,1.3h-31.2c-0.5,0-0.9,0.3-1.2,0.7
		l-4.2,7.3l-4.2-7.3c-0.2-0.4-0.7-0.7-1.2-0.7h-8.6c-0.7,0-1.3-0.6-1.3-1.3v-4h-2.7v4c0,2.2,1.8,4,4,4h7.9l4.9,8.6
		c0.4,0.6,1.2,0.9,1.8,0.5c0.2-0.1,0.4-0.3,0.5-0.5l4.9-8.6h30.5c2.2,0,4-1.8,4-4V77.7C1345.5,75.5,1343.7,73.7,1341.5,73.7z"/>
	<path class="st3" d="M1318.9,101.6V67.1c0-2.2-1.8-4-4-4h-30.8l-4.3-8.6c-0.2-0.4-0.7-0.7-1.2-0.7s-1,0.3-1.2,0.7l-4.6,8.6h-8.5
		c-2.2,0-4,1.8-4,4v34.6c0,2.2,1.8,4,4,4h50.5C1317.1,105.6,1318.9,103.8,1318.9,101.6z M1263.1,101.6V67.1c0-0.7,0.6-1.3,1.3-1.3
		h9.3c0.5,0,0.9-0.3,1.2-0.7l3.8-7l3.5,7c0.2,0.5,0.7,0.7,1.2,0.7h31.6c0.7,0,1.3,0.6,1.3,1.3v34.6c0,0.7-0.6,1.3-1.3,1.3h-50.5
		C1263.6,103,1263.1,102.4,1263.1,101.6z"/>
	<path class="st3" d="M1275,78.4h29.2c0.7,0,1.3-0.6,1.3-1.3s-0.6-1.3-1.3-1.3H1275c-0.7,0-1.3,0.6-1.3,1.3S1274.3,78.4,1275,78.4z
		 M1304.3,83H1275c-0.7,0-1.3,0.6-1.3,1.3s0.6,1.3,1.3,1.3h29.2c0.7,0,1.3-0.6,1.3-1.3S1305,83,1304.3,83z M1304.3,89.7H1275
		c-0.7,0-1.3,0.6-1.3,1.3s0.6,1.3,1.3,1.3h29.2c0.7,0,1.3-0.6,1.3-1.3S1305,89.7,1304.3,89.7z"/>
</g>
</svg>
