<?xml version="1.0" encoding="utf-8"?>
<!-- Generator: Adobe Illustrator 24.2.3, SVG Export Plug-In . SVG Version: 6.00 Build 0)  -->
<svg version="1.1" id="Capa_1" xmlns="http://www.w3.org/2000/svg" xmlns:xlink="http://www.w3.org/1999/xlink" x="0px" y="0px"
	 viewBox="0 0 259.3 193.9" style="enable-background:new 0 0 259.3 193.9;" xml:space="preserve">
<style type="text/css">
	.st0{fill:#03AA03;}
	.st1{fill:#FEFEFE;}
</style>
<g>
	<path class="st0" d="M131.8,153.5c-32.7,0-59.2-26.6-59.2-59.2c0-32.7,26.6-59.2,59.3-59.2c32.7,0,59.2,26.7,59.1,59.4
		C191,127.1,164.4,153.6,131.8,153.5z"/>
	<path class="st1" d="M131.6,71.8c0-0.2,0-0.3,0-0.5c0.2-2.1,0.1-3.6-2.6-4.6c-4.1-1.5-5.9-6.4-4.7-10.6c1.3-4.3,5.4-7.1,9.9-6.7
		c4.3,0.5,7.8,4,8.2,8.3c0.4,4.5-2.5,8.6-6.8,9.7c-0.9,0.2-1.1,0.5-1.1,1.4c0.1,2.1,0,4.1,0,6.2c0,0.6,0.2,0.9,0.8,1
		c4.9,0.7,8.9,3,11.9,7c0.3,0.4,0.5,0.5,0.9,0.2c1.9-1.1,3.7-2.2,5.6-3.2c0.7-0.4,0.4-0.8,0.4-1.3c-0.8-4.4,1.6-9.1,5.8-10.8
		c5.9-2.5,12.3,1.8,12.5,8.3c0.2,6-4.5,10.2-9.7,10c-2.6-0.1-4.9-1.2-6.6-3.2c-0.5-0.6-0.8-0.6-1.5-0.3c-1.7,1-3.4,2-5.1,2.9
		c-0.5,0.3-0.6,0.5-0.4,1.1c1.8,4.5,1.8,8.9,0,13.4c-0.2,0.6-0.2,0.8,0.4,1.1c2,1.1,3.9,2.1,5.8,3.3c0.6,0.4,0.9,0.3,1.4-0.2
		c3-2.9,7.2-3.6,10.7-1.7c4.3,2.2,6.1,7.5,4.1,12.1c-2,4.5-7.1,6.6-11.7,4.9s-7-6.7-5.5-11.4c0.3-0.8,0.2-1.2-0.6-1.6
		c-1.8-1-3.6-2-5.4-3c-0.5-0.3-0.8-0.4-1.2,0.2c-2.9,3.9-6.8,6.2-11.6,6.9c-0.8,0.1-1.1,0.4-1.1,1.2c0.1,2,0.1,3.9,0,5.9
		c0,0.8,0.2,1.1,1,1.3c4.4,1.1,7.3,5.1,7,9.6c-0.3,4.2-3.7,7.9-7.9,8.5c-4.7,0.6-9.2-2.5-10.2-7c-1.1-4.8,1.6-9.5,6.2-10.9
		c1.1-0.3,1.3-0.8,1.3-1.8c-0.1-1.9-0.1-3.8,0-5.7c0-0.7-0.2-0.9-0.8-1c-4.9-0.7-8.9-3-11.9-7c-0.4-0.5-0.6-0.4-1.1-0.2
		c-1.8,1.1-3.6,2.1-5.5,3.1c-0.8,0.4-0.9,0.7-0.6,1.5c1.9,6-2.5,12-8.8,12c-4.1,0-7.7-2.8-8.9-6.7c-1.2-4.1,0.4-8.4,3.9-10.6
		s8-1.8,11.1,1.2c0.7,0.7,1.1,0.6,1.9,0.2c1.8-1.1,3.7-2.1,5.5-3.1c0.5-0.3,0.6-0.5,0.4-1.1c-1.8-4.4-1.8-8.9,0-13.4
		c0.3-0.7,0-0.9-0.5-1.2c-1.7-0.9-3.3-1.8-5-2.8c-0.6-0.4-0.9-0.4-1.5,0.2c-2.4,2.7-5.5,3.8-9,3s-5.8-3-6.8-6.4
		c-2-6.5,2.6-12.5,9.2-12.3c5.3,0.2,9.8,5.9,8.7,11.2c-0.2,1-0.1,1.6,0.9,2c1.6,0.8,3.2,1.8,4.8,2.7c0.5,0.3,0.8,0.4,1.2-0.2
		c2.9-3.9,6.8-6.2,11.6-6.9c0.8-0.1,1.2-0.4,1.1-1.2C131.5,73.9,131.6,72.9,131.6,71.8z"/>
</g>
</svg>
