<?xml version="1.0" encoding="utf-8"?>
<!-- Generator: Adobe Illustrator 24.2.3, SVG Export Plug-In . SVG Version: 6.00 Build 0)  -->
<svg version="1.1" id="Capa_1" xmlns="http://www.w3.org/2000/svg" xmlns:xlink="http://www.w3.org/1999/xlink" x="0px" y="0px"
	 viewBox="0 0 259.3 193.9" style="enable-background:new 0 0 259.3 193.9;" xml:space="preserve">
<style type="text/css">
	.st0{fill:#03AA03;}
	.st1{fill:#FEFEFE;}
</style>
<g>
	<path class="st0" d="M123.2,157.4c-32.7,0-59.2-26.5-59.2-59.2S90.5,38.9,123.3,39c32.7,0,59.2,26.5,59.2,59.2
		C182.4,130.8,155.9,157.4,123.2,157.4z"/>
	<path class="st1" d="M123.8,63.8c11.6,0,23.2,0,34.8,0c3.3,0,5,1.6,5,5c0,5.6,0,11.2,0,16.8c0,2.5-1.7,4.3-4.2,4.4
		c-0.2,0-0.5,0-0.7,0c-23.3,0-46.5,0-69.8,0c-2.7,0-4.3-1.1-4.9-3.3c-0.1-0.4-0.1-0.9-0.1-1.3c0-5.6,0-11.3,0-16.9
		c0-2.8,1.9-4.7,4.7-4.7C100.4,63.8,112.1,63.8,123.8,63.8z"/>
	<path class="st1" d="M146.8,118.9c-1.9,0-3.7,0-5.6,0c-1.8,0-2.9-1.1-2.9-2.9c0-3.6,0-7.2,0-10.9c0-1.9,1.1-2.9,3-3
		c3.7,0,7.5,0,11.2,0c1.9,0,2.9,1.1,3,3c0,3.6,0,7.2,0,10.8c0,2-1,3-3,3C150.6,118.9,148.7,118.9,146.8,118.9z"/>
	<path class="st1" d="M100.5,118.9c-1.9,0-3.7,0-5.6,0c-1.7,0-2.8-1-2.8-2.7c0-3.7,0-7.5,0-11.2c0-1.7,1.1-2.8,2.8-2.8
		c3.9,0,7.7,0,11.6,0c1.7,0,2.8,1.1,2.8,2.8c0,3.7,0,7.4,0,11.1c0,1.8-1.1,2.8-2.9,2.8C104.4,118.9,102.5,118.9,100.5,118.9z"/>
	<path class="st1" d="M123.7,118.9c-1.9,0-3.8,0-5.6,0c-1.9,0-2.9-1-2.9-2.9c0-3.6,0-7.3,0-10.9c0-1.9,1-2.9,3-2.9
		c3.7,0,7.4,0,11.1,0c2,0,3,1,3,2.9c0,3.6,0,7.3,0,10.9c0,2-1,2.9-3,2.9C127.5,118.9,125.6,118.9,123.7,118.9z"/>
	<path class="st1" d="M105.2,127.3c0,1.9,0,3.7,0,5.6c0,0.9-0.3,1.2-1.2,1.2c-2.2,0-4.5,0-6.7,0c-0.9,0-1.2-0.4-1.2-1.2
		c0-3.8,0-7.6,0-11.3c0-0.7,0.3-0.9,0.9-0.9c2.4,0,4.9,0,7.3,0c0.7,0,0.9,0.2,0.9,0.9C105.2,123.4,105.2,125.4,105.2,127.3z"/>
	<path class="st1" d="M119.3,127.2c0-1.9,0-3.7,0-5.6c0-0.7,0.2-0.9,0.9-0.9c2.4,0,4.9,0,7.3,0c0.7,0,0.9,0.2,0.9,0.9
		c0,3.7,0,7.5,0,11.2c0,0.9-0.3,1.3-1.3,1.3c-2.2,0-4.4,0-6.6,0c-1,0-1.2-0.4-1.2-1.3C119.3,130.9,119.3,129.1,119.3,127.2z"/>
	<path class="st1" d="M151.4,127.3c0,1.8,0,3.6,0,5.4c0,1-0.3,1.5-1.3,1.4c-2.2-0.1-4.3,0-6.5,0c-0.9,0-1.3-0.3-1.3-1.2
		c0-3.8,0-7.6,0-11.4c0-0.6,0.2-0.8,0.8-0.8c2.5,0,4.9,0,7.4,0c0.7,0,0.9,0.2,0.9,0.9C151.4,123.5,151.4,125.4,151.4,127.3z"/>
	<path class="st1" d="M100.5,100.5c-1.4,0-2.7,0-4.1,0c-0.6,0-0.8-0.2-0.8-0.8c-0.1-2.3,0.7-4,3.6-3.8c1.2,0.1,2.5,0,3.7,0
		c2,0.1,3.5,2.5,2.7,4.3c-0.2,0.4-0.5,0.2-0.8,0.2C103.4,100.5,102,100.5,100.5,100.5z"/>
	<path class="st1" d="M146.9,100.5c-1.3,0-2.6,0-3.9,0c-0.7,0-1-0.1-1-1c0-2.7,0.8-3.6,3.5-3.6c1.2,0,2.4,0,3.6,0
		c2.2,0,3.6,2.2,2.9,4.3c-0.2,0.5-0.5,0.3-0.8,0.3C149.7,100.5,148.3,100.5,146.9,100.5z"/>
	<path class="st1" d="M123.7,100.5c-1.4,0-2.7,0-4.1,0c-0.7,0-0.8-0.2-0.9-0.9c0-2.8,0.8-3.7,3.6-3.7c1.3,0,2.6,0,3.8,0
		c2,0.1,3.4,2.6,2.6,4.3c-0.2,0.4-0.5,0.2-0.8,0.3C126.5,100.5,125.1,100.5,123.7,100.5z"/>
	<path class="st0" d="M147,69.3c1.6,0,3.1,0,4.7,0c1.7,0,2.6,0.9,2.6,2.6c0,1.8,0,3.7,0,5.5c0,1.5-0.7,2.4-2.2,2.7
		c-0.8,0.1-0.8,0.5-0.9,1.1c-0.1,2.9-0.6,3.4-3.6,3.4c-0.8,0-1.6,0-2.4,0c-1.7,0-2.7-1-2.6-2.6c0.1-1.2-0.2-2-1.6-2.2
		c-1-0.2-1.4-1.1-1.5-2.1c0-2-0.1-4.1,0-6.1c0-1.5,1-2.3,2.5-2.3C143.7,69.3,145.3,69.3,147,69.3z"/>
	<path class="st0" d="M100.7,69.3c1.6,0,3.2,0,4.8,0c1.6,0,2.5,0.9,2.6,2.5c0,1.9,0,3.7,0,5.6c0,1.5-0.7,2.4-2.1,2.6
		c-0.8,0.1-1,0.6-0.9,1.2c0.3,2.4-1,3.6-3.4,3.4c-0.8-0.1-1.6,0-2.4,0c-1.9,0-2.9-0.9-2.8-2.8c0-1.1-0.1-1.8-1.4-2
		c-1.1-0.2-1.6-1.1-1.6-2.2c0-2-0.1-4,0-6c0-1.5,1-2.4,2.5-2.4C97.5,69.3,99.1,69.3,100.7,69.3z"/>
	<path class="st0" d="M123.8,69.3c1.6,0,3.2,0,4.8,0s2.5,0.9,2.5,2.5c0,1.9,0,3.7,0,5.6c0,1.5-0.6,2.3-2.1,2.6
		c-0.7,0.1-0.9,0.5-0.9,1.1c-0.1,2.9-0.7,3.5-3.6,3.5c-0.8,0-1.6,0-2.4,0c-1.7,0-2.7-0.9-2.6-2.7c0-1.1-0.1-1.9-1.4-2.1
		c-1.1-0.2-1.6-1.1-1.6-2.2c0-2,0-4,0-6c0-1.4,1-2.4,2.4-2.4C120.5,69.3,122.1,69.3,123.8,69.3z"/>
</g>
</svg>
