<?xml version="1.0" encoding="utf-8"?>
<!-- Generator: Adobe Illustrator 24.2.3, SVG Export Plug-In . SVG Version: 6.00 Build 0)  -->
<svg version="1.1" id="Capa_1" xmlns="http://www.w3.org/2000/svg" xmlns:xlink="http://www.w3.org/1999/xlink" x="0px" y="0px"
	 viewBox="0 0 259.3 193.9" style="enable-background:new 0 0 259.3 193.9;" xml:space="preserve">
<style type="text/css">
	.st0{fill:#03AA03;}
	.st1{fill:#FFFFFF;}
</style>
<path class="st0" d="M126,150.4c-32.7,0-59.2-26.5-59.2-59.2c0-32.8,26.5-59.3,59.2-59.3s59.2,26.6,59.2,59.3
	C185.1,123.9,158.6,150.4,126,150.4z"/>
<g>
	<path class="st1" d="M167,73.7h-19.9v2.7H167c0.7,0,1.3,0.6,1.3,1.3v34.6c0,0.7-0.6,1.3-1.3,1.3h-31.2c-0.5,0-0.9,0.3-1.2,0.7
		l-4.2,7.3l-4.2-7.3c-0.2-0.4-0.7-0.7-1.2-0.7h-8.6c-0.7,0-1.3-0.6-1.3-1.3v-4h-2.7v4c0,2.2,1.8,4,4,4h7.9l4.9,8.6
		c0.4,0.6,1.2,0.9,1.8,0.5c0.2-0.1,0.4-0.3,0.5-0.5l4.9-8.6h30.5c2.2,0,4-1.8,4-4V77.7C171,75.5,169.2,73.7,167,73.7z"/>
	<path class="st1" d="M144.4,101.6V67.1c0-2.2-1.8-4-4-4h-30.8l-4.3-8.6c-0.2-0.4-0.7-0.7-1.2-0.7s-1,0.3-1.2,0.7l-4.6,8.6h-8.5
		c-2.2,0-4,1.8-4,4v34.6c0,2.2,1.8,4,4,4h50.5C142.6,105.6,144.4,103.8,144.4,101.6z M88.6,101.6V67.1c0-0.7,0.6-1.3,1.3-1.3h9.3
		c0.5,0,0.9-0.3,1.2-0.7l3.8-7l3.5,7c0.2,0.5,0.7,0.7,1.2,0.7h31.6c0.7,0,1.3,0.6,1.3,1.3v34.6c0,0.7-0.6,1.3-1.3,1.3H90
		C89.1,103,88.6,102.4,88.6,101.6z"/>
	<path class="st1" d="M100.5,78.4h29.2c0.7,0,1.3-0.6,1.3-1.3s-0.6-1.3-1.3-1.3h-29.2c-0.7,0-1.3,0.6-1.3,1.3S99.8,78.4,100.5,78.4z
		 M129.8,83h-29.3c-0.7,0-1.3,0.6-1.3,1.3s0.6,1.3,1.3,1.3h29.2c0.7,0,1.3-0.6,1.3-1.3S130.5,83,129.8,83z M129.8,89.7h-29.3
		c-0.7,0-1.3,0.6-1.3,1.3s0.6,1.3,1.3,1.3h29.2c0.7,0,1.3-0.6,1.3-1.3S130.5,89.7,129.8,89.7z"/>
</g>
</svg>
