<?xml version="1.0" encoding="utf-8"?>
<!-- Generator: Adobe Illustrator 24.2.3, SVG Export Plug-In . SVG Version: 6.00 Build 0)  -->
<svg version="1.1" id="Capa_1" xmlns="http://www.w3.org/2000/svg" xmlns:xlink="http://www.w3.org/1999/xlink" x="0px" y="0px"
	 viewBox="0 0 259.3 193.9" style="enable-background:new 0 0 259.3 193.9;" xml:space="preserve">
<style type="text/css">
	.st0{fill:#03AA03;}
	.st1{fill:#FEFEFE;}
	.st2{fill:#F3FAF3;}
</style>
<g>
	<path class="st0" d="M126.4,157.5c-32.7,0-59.2-26.6-59.1-59.2c0-32.7,26.5-59.2,59.2-59.2s59.3,26.6,59.2,59.3
		C185.6,131,159.1,157.5,126.4,157.5z"/>
	<path class="st1" d="M167.9,78c-0.3,18.3-5.3,35-16.8,49.5c-6.4,8-14.2,14.4-23,19.6c-1.1,0.6-2,0.4-3-0.1c-10.7-6-19.5-14-26.6-24
		c-7.8-11.1-12.1-23.4-13-36.9c-0.4-6-0.2-12,0.8-17.9c0.2-1.5,1.1-2.1,2.6-1.9c13.4,1.7,25.3-1.7,35.7-10.5c1.7-1.4,2.1-1.4,4-0.2
		c7.7,5.1,15.9,8.9,25,10.5c3.7,0.6,7.4,0.8,11.1,0.3c1.7-0.2,2.4,0.3,2.6,2C167.7,71.5,167.8,74.7,167.9,78z"/>
	<path class="st0" d="M126.3,118.6c-3.5,0-7.1,0-10.6,0c-2.8,0-4.3-1.5-4.3-4.3c0-5.3,0-10.7,0-16c0-1.6,0.5-3,2-3.8
		c0.5-0.3,0.4-0.7,0.4-1.1c0-2.1-0.1-4.1,0.5-6.2c1.7-6.1,7.6-9.9,14-9.1c5.9,0.8,10.6,6.2,10.6,12.3c0,0.6,0,1.2,0,1.8
		c-0.1,1.2,0,2.2,1.2,2.9c0.9,0.6,1.2,1.7,1.2,2.8c0,5.6,0,11.2,0,16.9c0,2.3-1.6,3.9-4,3.9C133.6,118.7,129.9,118.6,126.3,118.6z"
		/>
	<path class="st2" d="M113.7,134.3c-0.3-0.1-0.5-0.2-0.6-0.6C113.5,133.8,113.8,133.8,113.7,134.3z"/>
	<path class="st1" d="M126.2,114.7c-3.3,0-6.6,0-9.9,0c-0.9,0-1.1-0.2-1-1.1c0-4.9,0-9.8,0-14.7c0-0.9,0.2-1.2,1.2-1.2
		c6.6,0.1,13.2,0,19.8,0c0.8,0,1.2,0.1,1.2,1.1c-0.1,4.9-0.1,9.7,0,14.6c0,1-0.1,1.4-1.3,1.3C132.8,114.7,129.5,114.7,126.2,114.7
		L126.2,114.7z"/>
	<path class="st1" d="M126.2,93.9c-2.6,0-5.2,0-7.8,0c-0.8,0-1-0.2-0.9-0.9c0.1-1.3-0.1-2.5,0.2-3.8c0.8-4.6,4.6-7.6,9.3-7.3
		c4.3,0.3,7.8,4,7.9,8.5c0,1.1,0.4,2.5-0.2,3.2c-0.6,0.7-2.1,0.2-3.2,0.2C129.8,93.9,128,93.9,126.2,93.9z"/>
	<path class="st0" d="M126,100.8c2.7,0,4.9,2.2,4.9,5c0,2.7-2.2,4.8-4.9,4.8c-2.7,0-4.9-2.2-4.9-5C121.2,103,123.4,100.8,126,100.8z
		"/>
</g>
</svg>
