<svg id="visual" viewBox="0 0 960 540" width="960" height="540" xmlns="http://www.w3.org/2000/svg" xmlns:xlink="http://www.w3.org/1999/xlink" version="1.1"><g stroke-width="1" stroke-linejoin="bevel"><path d="M471 260.5L510 238.4L483.3 230.5Z" fill="#131f29" stroke="#131f29"></path><path d="M471 260.5L514.3 280.6L510 238.4Z" fill="#121c24" stroke="#121c24"></path><path d="M514.3 280.6L524.7 270.5L510 238.4Z" fill="#1a2935" stroke="#1a2935"></path><path d="M483.3 230.5L428 256.5L471 260.5Z" fill="#253746" stroke="#253746"></path><path d="M471 260.5L477.3 340.5L514.3 280.6Z" fill="#15222d" stroke="#15222d"></path><path d="M425.3 280.5L436.7 297.5L471 260.5Z" fill="#14212b" stroke="#14212b"></path><path d="M428 256.5L425.3 280.5L471 260.5Z" fill="#14212b" stroke="#14212b"></path><path d="M605.7 190.4L495.3 175.4L510 238.4Z" fill="#304658" stroke="#304658"></path><path d="M510 238.4L495.3 175.4L483.3 230.5Z" fill="#14212b" stroke="#14212b"></path><path d="M483.3 230.5L480.7 166.2L428 256.5Z" fill="#14212b" stroke="#14212b"></path><path d="M477.3 340.5L544.7 310.5L514.3 280.6Z" fill="#121c24" stroke="#121c24"></path><path d="M514.3 280.6L544.7 310.5L524.7 270.5Z" fill="#131f29" stroke="#131f29"></path><path d="M524.7 270.5L605.7 190.4L510 238.4Z" fill="#304658" stroke="#304658"></path><path d="M355.3 226.5L411.7 260.4L428 256.5Z" fill="#14212b" stroke="#14212b"></path><path d="M428 256.5L411.7 260.4L425.3 280.5Z" fill="#111b22" stroke="#111b22"></path><path d="M359 293.6L447 346.7L436.7 297.5Z" fill="#1a2935" stroke="#1a2935"></path><path d="M495.3 175.4L480.7 166.2L483.3 230.5Z" fill="#121e26" stroke="#121e26"></path><path d="M436.7 297.5L477.3 340.5L471 260.5Z" fill="#1a2935" stroke="#1a2935"></path><path d="M447 346.7L477 352.6L477.3 340.5Z" fill="#253746" stroke="#253746"></path><path d="M477.3 340.5L477 352.6L544.7 310.5Z" fill="#121e26" stroke="#121e26"></path><path d="M359 293.6L436.7 297.5L425.3 280.5Z" fill="#304658" stroke="#304658"></path><path d="M436.7 297.5L447 346.7L477.3 340.5Z" fill="#111b22" stroke="#111b22"></path><path d="M574.7 333.7L602 276.6L544.7 310.5Z" fill="#131f29" stroke="#131f29"></path><path d="M544.7 310.5L602 276.6L524.7 270.5Z" fill="#1f303e" stroke="#1f303e"></path><path d="M477 352.6L574.7 333.7L544.7 310.5Z" fill="#304658" stroke="#304658"></path><path d="M602 276.6L605.7 190.4L524.7 270.5Z" fill="#15222d" stroke="#15222d"></path><path d="M474 101.2L466.7 105.1L480.7 166.2Z" fill="#121c24" stroke="#121c24"></path><path d="M355.3 226.5L357.7 282.5L411.7 260.4Z" fill="#111b22" stroke="#111b22"></path><path d="M411.7 260.4L359 293.6L425.3 280.5Z" fill="#1f303e" stroke="#1f303e"></path><path d="M380.7 137.3L355.3 226.5L428 256.5Z" fill="#2a3e4f" stroke="#2a3e4f"></path><path d="M357.7 282.5L359 293.6L411.7 260.4Z" fill="#121e26" stroke="#121e26"></path><path d="M638.3 327.5L636 279.5L602 276.6Z" fill="#1a2935" stroke="#1a2935"></path><path d="M602 276.6L636 279.5L605.7 190.4Z" fill="#304658" stroke="#304658"></path><path d="M474 101.2L480.7 166.2L484 94.3Z" fill="#121c24" stroke="#121c24"></path><path d="M380.7 137.3L340 207.4L355.3 226.5Z" fill="#15222d" stroke="#15222d"></path><path d="M355.3 226.5L343 273.5L357.7 282.5Z" fill="#1a2935" stroke="#1a2935"></path><path d="M357.7 282.5L343 273.5L359 293.6Z" fill="#1a2935" stroke="#1a2935"></path><path d="M605.7 190.4L574.3 125.3L495.3 175.4Z" fill="#253746" stroke="#253746"></path><path d="M548.3 107.2L480.7 166.2L495.3 175.4Z" fill="#121c24" stroke="#121c24"></path><path d="M340 207.4L341 219.5L355.3 226.5Z" fill="#253746" stroke="#253746"></path><path d="M355.3 226.5L314.3 240.4L343 273.5Z" fill="#111b22" stroke="#111b22"></path><path d="M574.3 125.3L548.3 107.2L495.3 175.4Z" fill="#14212b" stroke="#14212b"></path><path d="M447 346.7L485.7 407.7L477 352.6Z" fill="#15222d" stroke="#15222d"></path><path d="M477 352.6L485.7 407.7L574.7 333.7Z" fill="#121c24" stroke="#121c24"></path><path d="M415.3 427.8L485.7 407.7L447 346.7Z" fill="#15222d" stroke="#15222d"></path><path d="M474 101.2L424 72.1L466.7 105.1Z" fill="#304658" stroke="#304658"></path><path d="M548.3 107.2L484 94.3L480.7 166.2Z" fill="#131f29" stroke="#131f29"></path><path d="M380.7 137.3L428 256.5L480.7 166.2Z" fill="#14212b" stroke="#14212b"></path><path d="M341 219.5L314.3 240.4L355.3 226.5Z" fill="#121c24" stroke="#121c24"></path><path d="M424 72.1L380.7 137.3L466.7 105.1Z" fill="#1a2935" stroke="#1a2935"></path><path d="M466.7 105.1L380.7 137.3L480.7 166.2Z" fill="#1f303e" stroke="#1f303e"></path><path d="M621.7 383.6L638.3 327.5L574.7 333.7Z" fill="#2a3e4f" stroke="#2a3e4f"></path><path d="M574.7 333.7L638.3 327.5L602 276.6Z" fill="#253746" stroke="#253746"></path><path d="M322.3 369.6L392.7 387.6L359 293.6Z" fill="#111b22" stroke="#111b22"></path><path d="M359 293.6L392.7 387.6L447 346.7Z" fill="#131f29" stroke="#131f29"></path><path d="M641 155.3L632.7 158.2L666 190.5Z" fill="#121c24" stroke="#121c24"></path><path d="M605.7 190.4L632.7 158.2L574.3 125.3Z" fill="#1f303e" stroke="#1f303e"></path><path d="M574.3 125.3L583.7 36.1L548.3 107.2Z" fill="#14212b" stroke="#14212b"></path><path d="M632.7 158.2L605.7 190.4L666 190.5Z" fill="#2a3e4f" stroke="#2a3e4f"></path><path d="M415.3 427.8L489.3 423.9L485.7 407.7Z" fill="#1a2935" stroke="#1a2935"></path><path d="M485.7 407.7L587 401.8L574.7 333.7Z" fill="#1f303e" stroke="#1f303e"></path><path d="M304.7 225.4L341 219.5L340 207.4Z" fill="#253746" stroke="#253746"></path><path d="M304.7 225.4L314.3 240.4L341 219.5Z" fill="#121c24" stroke="#121c24"></path><path d="M313 356.7L322.3 369.6L359 293.6Z" fill="#121e26" stroke="#121e26"></path><path d="M666 190.5L605.7 190.4L636 279.5Z" fill="#121e26" stroke="#121e26"></path><path d="M632.7 158.2L639.7 87.3L574.3 125.3Z" fill="#304658" stroke="#304658"></path><path d="M489.3 423.9L587 401.8L485.7 407.7Z" fill="#253746" stroke="#253746"></path><path d="M701 339.7L671.3 284.6L638.3 327.5Z" fill="#131f29" stroke="#131f29"></path><path d="M638.3 327.5L671.3 284.6L636 279.5Z" fill="#15222d" stroke="#15222d"></path><path d="M671.3 284.6L666 190.5L636 279.5Z" fill="#111b22" stroke="#111b22"></path><path d="M587 401.8L621.7 383.6L574.7 333.7Z" fill="#14212b" stroke="#14212b"></path><path d="M311.3 160.3L304.7 225.4L340 207.4Z" fill="#253746" stroke="#253746"></path><path d="M313 356.7L359 293.6L343 273.5Z" fill="#1f303e" stroke="#1f303e"></path><path d="M484 94.3L424 72.1L474 101.2Z" fill="#121c24" stroke="#121c24"></path><path d="M380.7 137.3L327 136.3L340 207.4Z" fill="#15222d" stroke="#15222d"></path><path d="M473.3 1.1L424 72.1L484 94.3Z" fill="#131f29" stroke="#131f29"></path><path d="M489.3 423.9L592.3 414.7L587 401.8Z" fill="#131f29" stroke="#131f29"></path><path d="M587 401.8L592.3 414.7L621.7 383.6Z" fill="#14212b" stroke="#14212b"></path><path d="M392.7 387.6L415.3 427.8L447 346.7Z" fill="#304658" stroke="#304658"></path><path d="M327.3 133.2L327 136.3L380.7 137.3Z" fill="#304658" stroke="#304658"></path><path d="M327 136.3L311.3 160.3L340 207.4Z" fill="#131f29" stroke="#131f29"></path><path d="M351 67.2L327.3 133.2L380.7 137.3Z" fill="#253746" stroke="#253746"></path><path d="M327 136.3L295 107.1L311.3 160.3Z" fill="#1f303e" stroke="#1f303e"></path><path d="M313 356.7L229.7 313.5L240.3 341.5Z" fill="#15222d" stroke="#15222d"></path><path d="M392.7 387.6L330.3 439.7L415.3 427.8Z" fill="#111b22" stroke="#111b22"></path><path d="M313 356.7L343 273.5L229.7 313.5Z" fill="#253746" stroke="#253746"></path><path d="M415.3 427.8L488.3 462.8L489.3 423.9Z" fill="#1a2935" stroke="#1a2935"></path><path d="M489.3 423.9L498 469.8L592.3 414.7Z" fill="#14212b" stroke="#14212b"></path><path d="M703.3 132.3L681 151.4L728.7 173.3Z" fill="#304658" stroke="#304658"></path><path d="M666 190.5L681 151.4L641 155.3Z" fill="#253746" stroke="#253746"></path><path d="M641 155.3L639.7 87.3L632.7 158.2Z" fill="#253746" stroke="#253746"></path><path d="M481.7 534.9L498 469.8L488.3 462.8Z" fill="#121c24" stroke="#121c24"></path><path d="M488.3 462.8L498 469.8L489.3 423.9Z" fill="#111b22" stroke="#111b22"></path><path d="M681 151.4L639.7 87.3L641 155.3Z" fill="#1a2935" stroke="#1a2935"></path><path d="M548.3 107.2L524.7 0L484 94.3Z" fill="#1f303e" stroke="#1f303e"></path><path d="M615 509.9L621.7 383.6L592.3 414.7Z" fill="#2a3e4f" stroke="#2a3e4f"></path><path d="M615 509.9L679.3 374.7L621.7 383.6Z" fill="#1a2935" stroke="#1a2935"></path><path d="M621.7 383.6L679.3 374.7L638.3 327.5Z" fill="#304658" stroke="#304658"></path><path d="M728.7 173.3L681 151.4L666 190.5Z" fill="#1a2935" stroke="#1a2935"></path><path d="M679.3 374.7L701 339.7L638.3 327.5Z" fill="#121e26" stroke="#121e26"></path><path d="M311.3 160.3L262.7 234.5L304.7 225.4Z" fill="#121c24" stroke="#121c24"></path><path d="M304.7 225.4L262.7 234.5L314.3 240.4Z" fill="#15222d" stroke="#15222d"></path><path d="M235.7 153.3L262.7 234.5L311.3 160.3Z" fill="#253746" stroke="#253746"></path><path d="M424 72.1L351 67.2L380.7 137.3Z" fill="#131f29" stroke="#131f29"></path><path d="M327.3 133.2L295 107.1L327 136.3Z" fill="#15222d" stroke="#15222d"></path><path d="M639.7 87.3L583.7 36.1L574.3 125.3Z" fill="#131f29" stroke="#131f29"></path><path d="M424 72.1L359.3 6.1L351 67.2Z" fill="#111b22" stroke="#111b22"></path><path d="M728.7 173.3L666 190.5L753.3 247.4Z" fill="#121c24" stroke="#121c24"></path><path d="M681 151.4L703.3 132.3L639.7 87.3Z" fill="#253746" stroke="#253746"></path><path d="M639.7 87.3L619 28.1L583.7 36.1Z" fill="#111b22" stroke="#111b22"></path><path d="M351 67.2L295 107.1L327.3 133.2Z" fill="#131f29" stroke="#131f29"></path><path d="M343 475.9L423.7 485.8L415.3 427.8Z" fill="#131f29" stroke="#131f29"></path><path d="M415.3 427.8L423.7 485.8L488.3 462.8Z" fill="#121c24" stroke="#121c24"></path><path d="M541.7 509.9L539.7 493.8L481.7 534.9Z" fill="#131f29" stroke="#131f29"></path><path d="M498 469.8L539.7 493.8L592.3 414.7Z" fill="#111b22" stroke="#111b22"></path><path d="M277 382.8L330.3 439.7L322.3 369.6Z" fill="#14212b" stroke="#14212b"></path><path d="M322.3 369.6L330.3 439.7L392.7 387.6Z" fill="#15222d" stroke="#15222d"></path><path d="M277 382.8L322.3 369.6L313 356.7Z" fill="#131f29" stroke="#131f29"></path><path d="M753.3 247.4L666 190.5L671.3 284.6Z" fill="#2a3e4f" stroke="#2a3e4f"></path><path d="M489.3 0L473.3 1.1L484 94.3Z" fill="#1f303e" stroke="#1f303e"></path><path d="M524.7 0L489.3 0L484 94.3Z" fill="#1a2935" stroke="#1a2935"></path><path d="M240.3 341.5L277 382.8L313 356.7Z" fill="#131f29" stroke="#131f29"></path><path d="M583.7 36.1L524.7 0L548.3 107.2Z" fill="#15222d" stroke="#15222d"></path><path d="M664 56.2L619 28.1L639.7 87.3Z" fill="#121c24" stroke="#121c24"></path><path d="M583.7 36.1L619 28.1L524.7 0Z" fill="#1a2935" stroke="#1a2935"></path><path d="M489.3 0L437 0L473.3 1.1Z" fill="#1f303e" stroke="#1f303e"></path><path d="M473.3 1.1L437 0L424 72.1Z" fill="#2a3e4f" stroke="#2a3e4f"></path><path d="M351 67.2L333.7 40.2L295 107.1Z" fill="#1a2935" stroke="#1a2935"></path><path d="M683.3 60.2L664 56.2L639.7 87.3Z" fill="#2a3e4f" stroke="#2a3e4f"></path><path d="M683.3 60.2L639.7 87.3L703.3 132.3Z" fill="#304658" stroke="#304658"></path><path d="M760.3 283.5L753.3 247.4L671.3 284.6Z" fill="#15222d" stroke="#15222d"></path><path d="M437 0L416.7 0L424 72.1Z" fill="#111b22" stroke="#111b22"></path><path d="M481.7 534.9L539.7 493.8L498 469.8Z" fill="#2a3e4f" stroke="#2a3e4f"></path><path d="M539.7 493.8L615 509.9L592.3 414.7Z" fill="#121e26" stroke="#121e26"></path><path d="M359.3 6.1L333.7 40.2L351 67.2Z" fill="#121e26" stroke="#121e26"></path><path d="M252.3 -5.9L262.7 116.1L295 107.1Z" fill="#15222d" stroke="#15222d"></path><path d="M295 107.1L262.7 116.1L311.3 160.3Z" fill="#121e26" stroke="#121e26"></path><path d="M368.3 515.9L426 509.9L423.7 485.8Z" fill="#121c24" stroke="#121c24"></path><path d="M423.7 485.8L426 509.9L488.3 462.8Z" fill="#131f29" stroke="#131f29"></path><path d="M229.7 313.5L343 273.5L314.3 240.4Z" fill="#253746" stroke="#253746"></path><path d="M229.7 313.5L314.3 240.4L262.7 234.5Z" fill="#15222d" stroke="#15222d"></path><path d="M210.7 324.6L229.7 313.5L174.3 261.5Z" fill="#253746" stroke="#253746"></path><path d="M298.7 451.8L343 475.9L330.3 439.7Z" fill="#1f303e" stroke="#1f303e"></path><path d="M330.3 439.7L343 475.9L415.3 427.8Z" fill="#1f303e" stroke="#1f303e"></path><path d="M298.7 451.8L330.3 439.7L277 382.8Z" fill="#121c24" stroke="#121c24"></path><path d="M770.7 356.6L760.3 283.5L701 339.7Z" fill="#1a2935" stroke="#1a2935"></path><path d="M701 339.7L760.3 283.5L671.3 284.6Z" fill="#131f29" stroke="#131f29"></path><path d="M733.7 89.1L683.3 60.2L703.3 132.3Z" fill="#121e26" stroke="#121e26"></path><path d="M664 56.2L655.3 0L619 28.1Z" fill="#121e26" stroke="#121e26"></path><path d="M210.7 324.6L238.7 355.7L240.3 341.5Z" fill="#131f29" stroke="#131f29"></path><path d="M240.3 341.5L238.7 355.7L277 382.8Z" fill="#2a3e4f" stroke="#2a3e4f"></path><path d="M262.7 116.1L235.7 153.3L311.3 160.3Z" fill="#121e26" stroke="#121e26"></path><path d="M257.3 450.9L298.7 451.8L277 382.8Z" fill="#2a3e4f" stroke="#2a3e4f"></path><path d="M168.3 383.7L242.3 375.6L238.7 355.7Z" fill="#111b22" stroke="#111b22"></path><path d="M238.7 355.7L242.3 375.6L277 382.8Z" fill="#121e26" stroke="#121e26"></path><path d="M416.7 0L359.3 6.1L424 72.1Z" fill="#1a2935" stroke="#1a2935"></path><path d="M183 87.2L223.3 119.2L262.7 116.1Z" fill="#121c24" stroke="#121c24"></path><path d="M193.3 134.3L222 164.3L235.7 153.3Z" fill="#253746" stroke="#253746"></path><path d="M235.7 153.3L222 164.3L262.7 234.5Z" fill="#1a2935" stroke="#1a2935"></path><path d="M456 540L481.7 534.9L426 509.9Z" fill="#121e26" stroke="#121e26"></path><path d="M426 509.9L481.7 534.9L488.3 462.8Z" fill="#253746" stroke="#253746"></path><path d="M728.7 173.3L752.7 135.2L703.3 132.3Z" fill="#15222d" stroke="#15222d"></path><path d="M770.7 148.4L752.7 135.2L728.7 173.3Z" fill="#131f29" stroke="#131f29"></path><path d="M770.7 148.4L728.7 173.3L806.3 212.5Z" fill="#14212b" stroke="#14212b"></path><path d="M561.3 540L615 509.9L541.7 509.9Z" fill="#131f29" stroke="#131f29"></path><path d="M541.7 509.9L615 509.9L539.7 493.8Z" fill="#121e26" stroke="#121e26"></path><path d="M802.7 332.5L778.7 271.5L760.3 283.5Z" fill="#253746" stroke="#253746"></path><path d="M755.7 374.8L701 339.7L679.3 374.7Z" fill="#131f29" stroke="#131f29"></path><path d="M760.3 283.5L778.7 271.5L753.3 247.4Z" fill="#304658" stroke="#304658"></path><path d="M174.3 261.5L229.7 313.5L262.7 234.5Z" fill="#304658" stroke="#304658"></path><path d="M229.7 313.5L210.7 324.6L240.3 341.5Z" fill="#14212b" stroke="#14212b"></path><path d="M441.7 540L456 540L426 509.9Z" fill="#14212b" stroke="#14212b"></path><path d="M481.7 534.9L561.3 540L541.7 509.9Z" fill="#304658" stroke="#304658"></path><path d="M368.3 515.9L423.7 485.8L343 475.9Z" fill="#1f303e" stroke="#1f303e"></path><path d="M752.7 135.2L733.7 89.1L703.3 132.3Z" fill="#111b22" stroke="#111b22"></path><path d="M757.3 383.8L755.7 374.8L679.3 374.7Z" fill="#121c24" stroke="#121c24"></path><path d="M344 540L368.3 515.9L331.7 540Z" fill="#253746" stroke="#253746"></path><path d="M429.3 540L441.7 540L426 509.9Z" fill="#1f303e" stroke="#1f303e"></path><path d="M368.3 515.9L429.3 540L426 509.9Z" fill="#121c24" stroke="#121c24"></path><path d="M688.3 525.9L757.3 383.8L679.3 374.7Z" fill="#111b22" stroke="#111b22"></path><path d="M755.7 374.8L770.7 356.6L701 339.7Z" fill="#121e26" stroke="#121e26"></path><path d="M456 540L561.3 540L481.7 534.9Z" fill="#121c24" stroke="#121c24"></path><path d="M806.3 212.5L728.7 173.3L753.3 247.4Z" fill="#253746" stroke="#253746"></path><path d="M752.7 135.2L758 97.1L733.7 89.1Z" fill="#14212b" stroke="#14212b"></path><path d="M767 388.7L770.7 356.6L755.7 374.8Z" fill="#131f29" stroke="#131f29"></path><path d="M252.3 -5.9L295 107.1L333.7 40.2Z" fill="#131f29" stroke="#131f29"></path><path d="M262.7 116.1L223.3 119.2L235.7 153.3Z" fill="#304658" stroke="#304658"></path><path d="M222 164.3L174.3 261.5L262.7 234.5Z" fill="#1a2935" stroke="#1a2935"></path><path d="M698 0L664 56.2L683.3 60.2Z" fill="#131f29" stroke="#131f29"></path><path d="M698 0L655.3 0L664 56.2Z" fill="#253746" stroke="#253746"></path><path d="M619 28.1L655.3 0L524.7 0Z" fill="#111b22" stroke="#111b22"></path><path d="M416.7 0L319.3 0L359.3 6.1Z" fill="#111b22" stroke="#111b22"></path><path d="M359.3 6.1L319.3 0L333.7 40.2Z" fill="#111b22" stroke="#111b22"></path><path d="M230.3 433.8L277 382.8L242.3 375.6Z" fill="#1f303e" stroke="#1f303e"></path><path d="M230.3 433.8L257.3 450.9L277 382.8Z" fill="#1a2935" stroke="#1a2935"></path><path d="M331.7 540L368.3 515.9L343 475.9Z" fill="#1a2935" stroke="#1a2935"></path><path d="M778 497.9L767 388.7L757.3 383.8Z" fill="#253746" stroke="#253746"></path><path d="M757.3 383.8L767 388.7L755.7 374.8Z" fill="#1a2935" stroke="#1a2935"></path><path d="M770 118.3L758 97.1L752.7 135.2Z" fill="#304658" stroke="#304658"></path><path d="M733.7 89.1L754.3 69.1L683.3 60.2Z" fill="#1f303e" stroke="#1f303e"></path><path d="M800.3 136.3L770 118.3L770.7 148.4Z" fill="#111b22" stroke="#111b22"></path><path d="M770.7 148.4L770 118.3L752.7 135.2Z" fill="#2a3e4f" stroke="#2a3e4f"></path><path d="M319.3 0L312.7 0L333.7 40.2Z" fill="#1f303e" stroke="#1f303e"></path><path d="M312.7 0L312 0L333.7 40.2Z" fill="#14212b" stroke="#14212b"></path><path d="M561.3 540L618 540L615 509.9Z" fill="#14212b" stroke="#14212b"></path><path d="M615 509.9L688.3 525.9L679.3 374.7Z" fill="#14212b" stroke="#14212b"></path><path d="M840.3 259.5L806.3 212.5L778.7 271.5Z" fill="#121e26" stroke="#121e26"></path><path d="M778.7 271.5L806.3 212.5L753.3 247.4Z" fill="#2a3e4f" stroke="#2a3e4f"></path><path d="M802.7 332.5L760.3 283.5L770.7 356.6Z" fill="#2a3e4f" stroke="#2a3e4f"></path><path d="M159.3 184.4L174.3 261.5L222 164.3Z" fill="#15222d" stroke="#15222d"></path><path d="M168.3 383.7L230.3 433.8L242.3 375.6Z" fill="#111b22" stroke="#111b22"></path><path d="M174 348.5L238.7 355.7L210.7 324.6Z" fill="#121c24" stroke="#121c24"></path><path d="M798.3 82.2L758 97.1L770 118.3Z" fill="#111b22" stroke="#111b22"></path><path d="M798.3 82.2L754.3 69.1L758 97.1Z" fill="#121c24" stroke="#121c24"></path><path d="M758 97.1L754.3 69.1L733.7 89.1Z" fill="#253746" stroke="#253746"></path><path d="M183 87.2L193.3 134.3L223.3 119.2Z" fill="#131f29" stroke="#131f29"></path><path d="M223.3 119.2L193.3 134.3L235.7 153.3Z" fill="#304658" stroke="#304658"></path><path d="M787.7 381.7L802.7 332.5L770.7 356.6Z" fill="#304658" stroke="#304658"></path><path d="M799 409.8L787.7 381.7L767 388.7Z" fill="#121e26" stroke="#121e26"></path><path d="M767 388.7L787.7 381.7L770.7 356.6Z" fill="#253746" stroke="#253746"></path><path d="M331.7 540L343 475.9L277.7 539.9Z" fill="#121e26" stroke="#121e26"></path><path d="M368.3 515.9L344 540L429.3 540Z" fill="#304658" stroke="#304658"></path><path d="M343 475.9L298.7 451.8L277.7 539.9Z" fill="#15222d" stroke="#15222d"></path><path d="M754.3 69.1L698 0L683.3 60.2Z" fill="#1f303e" stroke="#1f303e"></path><path d="M618 540L643.7 540L615 509.9Z" fill="#2a3e4f" stroke="#2a3e4f"></path><path d="M806.3 212.5L800.3 136.3L770.7 148.4Z" fill="#131f29" stroke="#131f29"></path><path d="M277.7 539.9L298.7 451.8L257.3 450.9Z" fill="#304658" stroke="#304658"></path><path d="M161.7 295.5L174 348.5L210.7 324.6Z" fill="#1a2935" stroke="#1a2935"></path><path d="M155 281.5L161.7 295.5L174.3 261.5Z" fill="#1a2935" stroke="#1a2935"></path><path d="M174.3 261.5L161.7 295.5L210.7 324.6Z" fill="#14212b" stroke="#14212b"></path><path d="M643.7 540L688.3 525.9L615 509.9Z" fill="#2a3e4f" stroke="#2a3e4f"></path><path d="M144.7 263.5L155 281.5L174.3 261.5Z" fill="#2a3e4f" stroke="#2a3e4f"></path><path d="M105.3 324.7L168.3 383.7L174 348.5Z" fill="#304658" stroke="#304658"></path><path d="M193.3 134.3L159.3 184.4L222 164.3Z" fill="#111b22" stroke="#111b22"></path><path d="M643.7 540L680.7 533.9L688.3 525.9Z" fill="#111b22" stroke="#111b22"></path><path d="M835 332.5L829.3 293.6L802.7 332.5Z" fill="#121c24" stroke="#121c24"></path><path d="M802.7 332.5L829.3 293.6L778.7 271.5Z" fill="#1a2935" stroke="#1a2935"></path><path d="M806.3 212.5L842 190.5L800.3 136.3Z" fill="#304658" stroke="#304658"></path><path d="M778 497.9L799 409.8L767 388.7Z" fill="#131f29" stroke="#131f29"></path><path d="M844 386.6L835 332.5L802.7 332.5Z" fill="#121e26" stroke="#121e26"></path><path d="M159.3 184.4L144.7 263.5L174.3 261.5Z" fill="#121e26" stroke="#121e26"></path><path d="M105.3 324.7L174 348.5L161.7 295.5Z" fill="#1f303e" stroke="#1f303e"></path><path d="M883.7 239.5L840.3 259.5L829.3 293.6Z" fill="#1a2935" stroke="#1a2935"></path><path d="M829.3 293.6L840.3 259.5L778.7 271.5Z" fill="#253746" stroke="#253746"></path><path d="M174 348.5L168.3 383.7L238.7 355.7Z" fill="#1f303e" stroke="#1f303e"></path><path d="M209 540L277.7 539.9L257.3 450.9Z" fill="#15222d" stroke="#15222d"></path><path d="M116 294.6L161.7 295.5L155 281.5Z" fill="#304658" stroke="#304658"></path><path d="M252.3 -5.9L183 87.2L262.7 116.1Z" fill="#131f29" stroke="#131f29"></path><path d="M193.3 134.3L99 157.4L159.3 184.4Z" fill="#131f29" stroke="#131f29"></path><path d="M825.3 63.1L798.3 82.2L861 115.2Z" fill="#1a2935" stroke="#1a2935"></path><path d="M800.3 136.3L798.3 82.2L770 118.3Z" fill="#1f303e" stroke="#1f303e"></path><path d="M754.3 69.1L779.7 0L698 0Z" fill="#2a3e4f" stroke="#2a3e4f"></path><path d="M680.7 533.9L690.3 540L688.3 525.9Z" fill="#253746" stroke="#253746"></path><path d="M688.3 525.9L778 497.9L757.3 383.8Z" fill="#121e26" stroke="#121e26"></path><path d="M643.7 540L690.3 540L680.7 533.9Z" fill="#15222d" stroke="#15222d"></path><path d="M312.7 0L252.3 -5.9L312 0Z" fill="#2a3e4f" stroke="#2a3e4f"></path><path d="M312 0L252.3 -5.9L333.7 40.2Z" fill="#2a3e4f" stroke="#2a3e4f"></path><path d="M319.3 0L252.3 -5.9L312.7 0Z" fill="#2a3e4f" stroke="#2a3e4f"></path><path d="M203 -17.9L252.3 -5.9L319.3 0Z" fill="#111b22" stroke="#111b22"></path><path d="M203 -17.9L319.3 0L416.7 0Z" fill="#2a3e4f" stroke="#2a3e4f"></path><path d="M203 -17.9L416.7 0L437 0Z" fill="#253746" stroke="#253746"></path><path d="M203 -17.9L437 0L489.3 0Z" fill="#253746" stroke="#253746"></path><path d="M203 -17.9L489.3 0L524.7 0Z" fill="#1f303e" stroke="#1f303e"></path><path d="M203 -17.9L524.7 0L655.3 0Z" fill="#1f303e" stroke="#1f303e"></path><path d="M844 386.6L802.7 332.5L787.7 381.7Z" fill="#2a3e4f" stroke="#2a3e4f"></path><path d="M846.3 194.4L842 190.5L806.3 212.5Z" fill="#2a3e4f" stroke="#2a3e4f"></path><path d="M209 540L257.3 450.9L230.3 433.8Z" fill="#14212b" stroke="#14212b"></path><path d="M840.3 259.5L846.3 194.4L806.3 212.5Z" fill="#15222d" stroke="#15222d"></path><path d="M842 190.5L854 173.4L800.3 136.3Z" fill="#121c24" stroke="#121c24"></path><path d="M854 173.4L846.3 194.4L883.7 239.5Z" fill="#121e26" stroke="#121e26"></path><path d="M883.7 239.5L846.3 194.4L840.3 259.5Z" fill="#131f29" stroke="#131f29"></path><path d="M846.3 194.4L854 173.4L842 190.5Z" fill="#14212b" stroke="#14212b"></path><path d="M854.3 430.7L844 386.6L799 409.8Z" fill="#121c24" stroke="#121c24"></path><path d="M799 409.8L844 386.6L787.7 381.7Z" fill="#2a3e4f" stroke="#2a3e4f"></path><path d="M952.7 298.5L883.7 239.5L829.3 293.6Z" fill="#253746" stroke="#253746"></path><path d="M753.7 540L778 497.9L688.3 525.9Z" fill="#131f29" stroke="#131f29"></path><path d="M113.3 251.5L116 294.6L144.7 263.5Z" fill="#1a2935" stroke="#1a2935"></path><path d="M144.7 263.5L116 294.6L155 281.5Z" fill="#111b22" stroke="#111b22"></path><path d="M113.3 251.5L144.7 263.5L159.3 184.4Z" fill="#253746" stroke="#253746"></path><path d="M99 157.4L113.3 251.5L159.3 184.4Z" fill="#304658" stroke="#304658"></path><path d="M798 0L779.7 0L798.3 82.2Z" fill="#121c24" stroke="#121c24"></path><path d="M798.3 82.2L779.7 0L754.3 69.1Z" fill="#253746" stroke="#253746"></path><path d="M698 0L203 -17.9L655.3 0Z" fill="#131f29" stroke="#131f29"></path><path d="M861 115.2L798.3 82.2L800.3 136.3Z" fill="#131f29" stroke="#131f29"></path><path d="M252.3 -5.9L196.3 0L183 87.2Z" fill="#131f29" stroke="#131f29"></path><path d="M97.7 103.2L99 157.4L193.3 134.3Z" fill="#14212b" stroke="#14212b"></path><path d="M690.3 540L753.7 540L688.3 525.9Z" fill="#304658" stroke="#304658"></path><path d="M778 497.9L854.3 430.7L799 409.8Z" fill="#131f29" stroke="#131f29"></path><path d="M952.7 298.5L829.3 293.6L835 332.5Z" fill="#131f29" stroke="#131f29"></path><path d="M854 173.4L861 115.2L800.3 136.3Z" fill="#15222d" stroke="#15222d"></path><path d="M34.3 314.6L105.3 324.7L116 294.6Z" fill="#253746" stroke="#253746"></path><path d="M116 294.6L105.3 324.7L161.7 295.5Z" fill="#304658" stroke="#304658"></path><path d="M168.3 383.7L132.7 415.7L230.3 433.8Z" fill="#1f303e" stroke="#1f303e"></path><path d="M889.7 124.3L861 115.2L854 173.4Z" fill="#304658" stroke="#304658"></path><path d="M252.3 -5.9L203 -17.9L196.3 0Z" fill="#2a3e4f" stroke="#2a3e4f"></path><path d="M779.7 0L203 -17.9L698 0Z" fill="#2a3e4f" stroke="#2a3e4f"></path><path d="M105.3 324.7L132.7 415.7L168.3 383.7Z" fill="#121c24" stroke="#121c24"></path><path d="M825.3 63.1L798 0L798.3 82.2Z" fill="#1a2935" stroke="#1a2935"></path><path d="M779.7 0L798 0L203 -17.9Z" fill="#304658" stroke="#304658"></path><path d="M844.7 42.1L798 0L825.3 63.1Z" fill="#1a2935" stroke="#1a2935"></path><path d="M97.7 103.2L183 87.2L123 0Z" fill="#15222d" stroke="#15222d"></path><path d="M97.7 103.2L193.3 134.3L183 87.2Z" fill="#304658" stroke="#304658"></path><path d="M46.7 371.6L71.3 380.8L105.3 324.7Z" fill="#1f303e" stroke="#1f303e"></path><path d="M203.3 540L209 540L230.3 433.8Z" fill="#304658" stroke="#304658"></path><path d="M277.7 539.9L209 540L331.7 540Z" fill="#253746" stroke="#253746"></path><path d="M753.7 540L775 540L778 497.9Z" fill="#121c24" stroke="#121c24"></path><path d="M874.7 497.9L854.3 430.7L778 497.9Z" fill="#2a3e4f" stroke="#2a3e4f"></path><path d="M844 386.6L931.7 379.7L835 332.5Z" fill="#15222d" stroke="#15222d"></path><path d="M914.3 465.8L855.3 429.9L854.3 430.7Z" fill="#121e26" stroke="#121e26"></path><path d="M854.3 430.7L855.3 429.9L844 386.6Z" fill="#131f29" stroke="#131f29"></path><path d="M121 476.8L203.3 540L230.3 433.8Z" fill="#304658" stroke="#304658"></path><path d="M861 115.2L844.7 42.1L825.3 63.1Z" fill="#1a2935" stroke="#1a2935"></path><path d="M940.7 155.4L889.7 124.3L854 173.4Z" fill="#15222d" stroke="#15222d"></path><path d="M861 115.2L889.7 124.3L844.7 42.1Z" fill="#1f303e" stroke="#1f303e"></path><path d="M123 0L183 87.2L196.3 0Z" fill="#111b22" stroke="#111b22"></path><path d="M71.3 380.8L94 412.7L132.7 415.7Z" fill="#1f303e" stroke="#1f303e"></path><path d="M132.7 415.7L121 476.8L230.3 433.8Z" fill="#1a2935" stroke="#1a2935"></path><path d="M71.3 380.8L132.7 415.7L105.3 324.7Z" fill="#1a2935" stroke="#1a2935"></path><path d="M105.3 324.7L34.3 314.6L46.7 371.6Z" fill="#1a2935" stroke="#1a2935"></path><path d="M94 412.7L95 423.9L132.7 415.7Z" fill="#14212b" stroke="#14212b"></path><path d="M110.7 474.8L121 476.8L132.7 415.7Z" fill="#253746" stroke="#253746"></path><path d="M46.3 184.4L113.3 251.5L99 157.4Z" fill="#1f303e" stroke="#1f303e"></path><path d="M94 412.7L0 426.8L95 423.9Z" fill="#1f303e" stroke="#1f303e"></path><path d="M95 423.9L110.7 474.8L132.7 415.7Z" fill="#121c24" stroke="#121c24"></path><path d="M99.3 540L110.7 474.8L68.7 515.9Z" fill="#14212b" stroke="#14212b"></path><path d="M121 476.8L99.3 540L203.3 540Z" fill="#253746" stroke="#253746"></path><path d="M203 -17.9L123 0L196.3 0Z" fill="#111b22" stroke="#111b22"></path><path d="M48.3 32.2L69.7 100.3L97.7 103.2Z" fill="#2a3e4f" stroke="#2a3e4f"></path><path d="M97.7 103.2L69.7 100.3L99 157.4Z" fill="#121e26" stroke="#121e26"></path><path d="M43.7 159.4L46.3 184.4L99 157.4Z" fill="#15222d" stroke="#15222d"></path><path d="M847.3 540L874.7 497.9L778 497.9Z" fill="#1a2935" stroke="#1a2935"></path><path d="M855.3 429.9L931.7 379.7L844 386.6Z" fill="#14212b" stroke="#14212b"></path><path d="M883.7 239.5L940.7 155.4L854 173.4Z" fill="#121e26" stroke="#121e26"></path><path d="M951.7 100.2L872.3 0L844.7 42.1Z" fill="#121e26" stroke="#121e26"></path><path d="M844.7 42.1L872.3 0L798 0Z" fill="#14212b" stroke="#14212b"></path><path d="M798 0L872.3 0L203 -17.9Z" fill="#121e26" stroke="#121e26"></path><path d="M44.3 130.3L43.7 159.4L99 157.4Z" fill="#111b22" stroke="#111b22"></path><path d="M775 540L847.3 540L778 497.9Z" fill="#111b22" stroke="#111b22"></path><path d="M914.3 465.8L931.7 379.7L855.3 429.9Z" fill="#121c24" stroke="#121c24"></path><path d="M889.7 124.3L951.7 100.2L844.7 42.1Z" fill="#111b22" stroke="#111b22"></path><path d="M960 172.4L940.7 155.4L883.7 239.5Z" fill="#121e26" stroke="#121e26"></path><path d="M34.3 314.6L116 294.6L113.3 251.5Z" fill="#304658" stroke="#304658"></path><path d="M71.3 380.8L0 426.8L94 412.7Z" fill="#1a2935" stroke="#1a2935"></path><path d="M34.3 314.6L113.3 251.5L27.3 233.5Z" fill="#111b22" stroke="#111b22"></path><path d="M27.3 233.5L113.3 251.5L46.3 184.4Z" fill="#15222d" stroke="#15222d"></path><path d="M69.7 100.3L44.3 130.3L99 157.4Z" fill="#253746" stroke="#253746"></path><path d="M0 240.4L27.3 233.5L0 237.5Z" fill="#121c24" stroke="#121c24"></path><path d="M0.3 95.1L44.3 130.3L69.7 100.3Z" fill="#253746" stroke="#253746"></path><path d="M931.7 379.7L952.7 298.5L835 332.5Z" fill="#1a2935" stroke="#1a2935"></path><path d="M952.7 298.5L954.7 282.6L883.7 239.5Z" fill="#131f29" stroke="#131f29"></path><path d="M0 262.5L27.3 233.5L0 240.4Z" fill="#131f29" stroke="#131f29"></path><path d="M960 265.5L883.7 239.5L954.7 282.6Z" fill="#2a3e4f" stroke="#2a3e4f"></path><path d="M960 265.5L960 253.5L883.7 239.5Z" fill="#14212b" stroke="#14212b"></path><path d="M960 286.6L960 265.5L954.7 282.6Z" fill="#14212b" stroke="#14212b"></path><path d="M974.7 397.8L960 286.6L952.7 298.5Z" fill="#121c24" stroke="#121c24"></path><path d="M952.7 298.5L960 286.6L954.7 282.6Z" fill="#304658" stroke="#304658"></path><path d="M960 452.9L914.3 465.8L960 540Z" fill="#15222d" stroke="#15222d"></path><path d="M874.7 497.9L914.3 465.8L854.3 430.7Z" fill="#253746" stroke="#253746"></path><path d="M931.7 379.7L960 383.8L952.7 298.5Z" fill="#111b22" stroke="#111b22"></path><path d="M960 253.5L960 172.4L883.7 239.5Z" fill="#2a3e4f" stroke="#2a3e4f"></path><path d="M940.7 155.4L951.7 100.2L889.7 124.3Z" fill="#1a2935" stroke="#1a2935"></path><path d="M960 172.4L960 139.2L940.7 155.4Z" fill="#1f303e" stroke="#1f303e"></path><path d="M203 -17.9L78.7 0L123 0Z" fill="#304658" stroke="#304658"></path><path d="M123 0L71.7 4.1L97.7 103.2Z" fill="#1f303e" stroke="#1f303e"></path><path d="M960 116.3L951.7 100.2L940.7 155.4Z" fill="#253746" stroke="#253746"></path><path d="M974.7 397.8L960 383.8L960 443.7Z" fill="#14212b" stroke="#14212b"></path><path d="M68.7 515.9L110.7 474.8L95 423.9Z" fill="#2a3e4f" stroke="#2a3e4f"></path><path d="M110.7 474.8L99.3 540L121 476.8Z" fill="#111b22" stroke="#111b22"></path><path d="M78.7 0L71.7 4.1L123 0Z" fill="#2a3e4f" stroke="#2a3e4f"></path><path d="M960 139.2L960 116.3L940.7 155.4Z" fill="#121e26" stroke="#121e26"></path><path d="M960 116.3L960 113.1L951.7 100.2Z" fill="#2a3e4f" stroke="#2a3e4f"></path><path d="M34.3 314.6L0 378.7L46.7 371.6Z" fill="#304658" stroke="#304658"></path><path d="M0 426.8L68.7 515.9L95 423.9Z" fill="#304658" stroke="#304658"></path><path d="M27.3 233.5L0 262.5L34.3 314.6Z" fill="#253746" stroke="#253746"></path><path d="M27.3 233.5L0 175.3L0 237.5Z" fill="#253746" stroke="#253746"></path><path d="M46.3 184.4L0 175.3L27.3 233.5Z" fill="#121c24" stroke="#121c24"></path><path d="M46.3 184.4L43.7 159.4L0 175.3Z" fill="#14212b" stroke="#14212b"></path><path d="M0 175.3L43.7 159.4L44.3 130.3Z" fill="#111b22" stroke="#111b22"></path><path d="M0 262.5L0 291.6L34.3 314.6Z" fill="#121c24" stroke="#121c24"></path><path d="M71.7 4.1L48.3 32.2L97.7 103.2Z" fill="#14212b" stroke="#14212b"></path><path d="M0.3 95.1L0 175.3L44.3 130.3Z" fill="#121c24" stroke="#121c24"></path><path d="M0 426.8L71.3 380.8L46.7 371.6Z" fill="#15222d" stroke="#15222d"></path><path d="M71.7 4.1L56.3 0L48.3 32.2Z" fill="#253746" stroke="#253746"></path><path d="M0 82.2L0.3 95.1L69.7 100.3Z" fill="#1a2935" stroke="#1a2935"></path><path d="M78.7 0L56.3 0L71.7 4.1Z" fill="#1f303e" stroke="#1f303e"></path><path d="M203 -17.9L56.3 0L78.7 0Z" fill="#2a3e4f" stroke="#2a3e4f"></path><path d="M960 443.7L960 383.8L931.7 379.7Z" fill="#131f29" stroke="#131f29"></path><path d="M960 383.8L974.7 397.8L952.7 298.5Z" fill="#111b22" stroke="#111b22"></path><path d="M960 286.6L974.7 397.8L960 265.5Z" fill="#1f303e" stroke="#1f303e"></path><path d="M960 265.5L974.7 397.8L960 253.5Z" fill="#121e26" stroke="#121e26"></path><path d="M960 253.5L974.7 397.8L960 172.4Z" fill="#14212b" stroke="#14212b"></path><path d="M960 172.4L969.7 0L960 139.2Z" fill="#131f29" stroke="#131f29"></path><path d="M960 139.2L969.7 0L960 116.3Z" fill="#253746" stroke="#253746"></path><path d="M960 116.3L969.7 0L960 113.1Z" fill="#111b22" stroke="#111b22"></path><path d="M960 452.9L960 443.7L914.3 465.8Z" fill="#253746" stroke="#253746"></path><path d="M914.3 465.8L960 443.7L931.7 379.7Z" fill="#14212b" stroke="#14212b"></path><path d="M0 291.6L0 378.7L34.3 314.6Z" fill="#131f29" stroke="#131f29"></path><path d="M960 540L914.3 465.8L874.7 497.9Z" fill="#14212b" stroke="#14212b"></path><path d="M960 443.7L960 452.9L974.7 397.8Z" fill="#121e26" stroke="#121e26"></path><path d="M0 82.2L69.7 100.3L48.3 32.2Z" fill="#15222d" stroke="#15222d"></path><path d="M0 31.1L0 82.2L48.3 32.2Z" fill="#1a2935" stroke="#1a2935"></path><path d="M0.3 95.1L0 82.2L0 175.3Z" fill="#111b22" stroke="#111b22"></path><path d="M0 498.9L57.7 540L68.7 515.9Z" fill="#121e26" stroke="#121e26"></path><path d="M68.7 515.9L57.7 540L99.3 540Z" fill="#131f29" stroke="#131f29"></path><path d="M0 378.7L0 426.8L46.7 371.6Z" fill="#131f29" stroke="#131f29"></path><path d="M0 378.7L-6.7 425.9L0 426.8Z" fill="#1f303e" stroke="#1f303e"></path><path d="M0 426.8L0 498.9L68.7 515.9Z" fill="#131f29" stroke="#131f29"></path><path d="M0 291.6L-6.7 425.9L0 378.7Z" fill="#2a3e4f" stroke="#2a3e4f"></path><path d="M0 262.5L-6.7 425.9L0 291.6Z" fill="#131f29" stroke="#131f29"></path><path d="M0 240.4L-6.7 425.9L0 262.5Z" fill="#304658" stroke="#304658"></path><path d="M0 237.5L-6.7 425.9L0 240.4Z" fill="#304658" stroke="#304658"></path><path d="M0 175.3L-6.7 425.9L0 237.5Z" fill="#14212b" stroke="#14212b"></path><path d="M0 82.2L-6.7 425.9L0 175.3Z" fill="#121e26" stroke="#121e26"></path><path d="M951.7 100.2L960 0L872.3 0Z" fill="#1f303e" stroke="#1f303e"></path><path d="M872.3 0L960 0L203 -17.9Z" fill="#14212b" stroke="#14212b"></path><path d="M969.7 0L960 0L951.7 100.2Z" fill="#2a3e4f" stroke="#2a3e4f"></path><path d="M969.7 0L951.7 100.2L960 113.1Z" fill="#1a2935" stroke="#1a2935"></path><path d="M0 0L0 31.1L48.3 32.2Z" fill="#1f303e" stroke="#1f303e"></path><path d="M0 82.2L0 31.1L-6.7 425.9Z" fill="#1f303e" stroke="#1f303e"></path><path d="M974.7 397.8L969.7 0L960 172.4Z" fill="#131f29" stroke="#131f29"></path><path d="M960 0L969.7 0L203 -17.9Z" fill="#304658" stroke="#304658"></path><path d="M847.3 540L960 540L874.7 497.9Z" fill="#121e26" stroke="#121e26"></path><path d="M960 452.9L962.7 540L974.7 397.8Z" fill="#111b22" stroke="#111b22"></path><path d="M-6.7 425.9L0 498.9L0 426.8Z" fill="#15222d" stroke="#15222d"></path><path d="M203 -17.9L0 0L56.3 0Z" fill="#111b22" stroke="#111b22"></path><path d="M56.3 0L0 0L48.3 32.2Z" fill="#1a2935" stroke="#1a2935"></path><path d="M0 31.1L0 0L-6.7 425.9Z" fill="#15222d" stroke="#15222d"></path><path d="M960 540L962.7 540L960 452.9Z" fill="#1f303e" stroke="#1f303e"></path><path d="M-6.7 425.9L0 540L0 498.9Z" fill="#15222d" stroke="#15222d"></path><path d="M0 498.9L0 540L57.7 540Z" fill="#304658" stroke="#304658"></path></g></svg>